<svg xmlns="http://www.w3.org/2000/svg" xmlns:xlink="http://www.w3.org/1999/xlink" contentStyleType="text/css" data-diagram-type="SEQUENCE" height="528px" preserveAspectRatio="none" style="width:877px;height:528px;background:#1B1B1B;" version="1.1" viewBox="0 0 877 528" width="877px" zoomAndPan="magnify"><defs/><g><rect fill="#1B1B1B" height="528" style="stroke:none;stroke-width:1;" width="877" x="0" y="0"/><g><title>Usuario</title><rect fill="#000000" fill-opacity="0.00000" height="366.4609" width="8" x="30.6021" y="81.2969"/><line style="stroke:#E7E7E7;stroke-width:0.5;stroke-dasharray:5,5;" x1="34" x2="34" y1="81.2969" y2="447.7578"/></g><g><title>buscar_local.html</title><rect fill="#000000" fill-opacity="0.00000" height="366.4609" width="8" x="170.7642" y="81.2969"/><line style="stroke:#E7E7E7;stroke-width:0.5;stroke-dasharray:5,5;" x1="174.2407" x2="174.2407" y1="81.2969" y2="447.7578"/></g><g><title>LivroController</title><rect fill="#000000" fill-opacity="0.00000" height="366.4609" width="8" x="418.9419" y="81.2969"/><line style="stroke:#E7E7E7;stroke-width:0.5;stroke-dasharray:5,5;" x1="422.2075" x2="422.2075" y1="81.2969" y2="447.7578"/></g><g><title>LivroService</title><rect fill="#000000" fill-opacity="0.00000" height="366.4609" width="8" x="537.6948" y="81.2969"/><line style="stroke:#E7E7E7;stroke-width:0.5;stroke-dasharray:5,5;" x1="541.6763" x2="541.6763" y1="81.2969" y2="447.7578"/></g><g><title>LivroRepository</title><rect fill="#000000" fill-opacity="0.00000" height="366.4609" width="8" x="659.3975" y="81.2969"/><line style="stroke:#E7E7E7;stroke-width:0.5;stroke-dasharray:5,5;" x1="662.7134" x2="662.7134" y1="81.2969" y2="447.7578"/></g><g><title>Banco de Dados</title><rect fill="#000000" fill-opacity="0.00000" height="366.4609" width="8" x="803.9902" y="81.2969"/><line style="stroke:#E7E7E7;stroke-width:0.5;stroke-dasharray:5,5;" x1="807.0776" x2="807.0776" y1="81.2969" y2="447.7578"/></g><g class="participant participant-head" data-participant="Usuario"><text fill="#FFFFFF" font-family="sans-serif" font-size="14" lengthAdjust="spacing" textLength="53.2041" x="5" y="77.9951">Usuario</text><ellipse cx="34.6021" cy="13.5" fill="#222222" rx="8" ry="8" style="stroke:#E7E7E7;stroke-width:0.5;"/><path d="M34.6021,21.5 L34.6021,48.5 M21.6021,29.5 L47.6021,29.5 M34.6021,48.5 L21.6021,63.5 M34.6021,48.5 L47.6021,63.5" fill="none" style="stroke:#E7E7E7;stroke-width:0.5;"/></g><g class="participant participant-tail" data-participant="Usuario"><text fill="#FFFFFF" font-family="sans-serif" font-size="14" lengthAdjust="spacing" textLength="53.2041" x="5" y="459.7529">Usuario</text><ellipse cx="34.6021" cy="471.5547" fill="#222222" rx="8" ry="8" style="stroke:#E7E7E7;stroke-width:0.5;"/><path d="M34.6021,479.5547 L34.6021,506.5547 M21.6021,487.5547 L47.6021,487.5547 M34.6021,506.5547 L21.6021,521.5547 M34.6021,506.5547 L47.6021,521.5547" fill="none" style="stroke:#E7E7E7;stroke-width:0.5;"/></g><g class="participant participant-head" data-participant="FE"><rect fill="#222222" height="46.5938" rx="2.5" ry="2.5" style="stroke:#E7E7E7;stroke-width:0.5;" width="137.0469" x="106.2407" y="33.7031"/><text fill="#FFFFFF" font-family="sans-serif" font-size="14" lengthAdjust="spacing" textLength="123.0469" x="113.2407" y="53.6982">buscar_local.html</text><text fill="#FFFFFF" font-family="sans-serif" font-size="14" lengthAdjust="spacing" textLength="91.2939" x="129.1172" y="69.9951">(bookaffix.js)</text></g><g class="participant participant-tail" data-participant="FE"><rect fill="#222222" height="46.5938" rx="2.5" ry="2.5" style="stroke:#E7E7E7;stroke-width:0.5;" width="137.0469" x="106.2407" y="446.7578"/><text fill="#FFFFFF" font-family="sans-serif" font-size="14" lengthAdjust="spacing" textLength="123.0469" x="113.2407" y="466.7529">buscar_local.html</text><text fill="#FFFFFF" font-family="sans-serif" font-size="14" lengthAdjust="spacing" textLength="91.2939" x="129.1172" y="483.0498">(bookaffix.js)</text></g><g class="participant participant-head" data-participant="Controller"><rect fill="#222222" height="30.2969" rx="2.5" ry="2.5" style="stroke:#E7E7E7;stroke-width:0.5;" width="117.4688" x="364.2075" y="50"/><text fill="#FFFFFF" font-family="sans-serif" font-size="14" lengthAdjust="spacing" textLength="103.4688" x="371.2075" y="69.9951">LivroController</text></g><g class="participant participant-tail" data-participant="Controller"><rect fill="#222222" height="30.2969" rx="2.5" ry="2.5" style="stroke:#E7E7E7;stroke-width:0.5;" width="117.4688" x="364.2075" y="446.7578"/><text fill="#FFFFFF" font-family="sans-serif" font-size="14" lengthAdjust="spacing" textLength="103.4688" x="371.2075" y="466.7529">LivroController</text></g><g class="participant participant-head" data-participant="Service"><rect fill="#222222" height="30.2969" rx="2.5" ry="2.5" style="stroke:#E7E7E7;stroke-width:0.5;" width="100.0371" x="491.6763" y="50"/><text fill="#FFFFFF" font-family="sans-serif" font-size="14" lengthAdjust="spacing" textLength="86.0371" x="498.6763" y="69.9951">LivroService</text></g><g class="participant participant-tail" data-participant="Service"><rect fill="#222222" height="30.2969" rx="2.5" ry="2.5" style="stroke:#E7E7E7;stroke-width:0.5;" width="100.0371" x="491.6763" y="446.7578"/><text fill="#FFFFFF" font-family="sans-serif" font-size="14" lengthAdjust="spacing" textLength="86.0371" x="498.6763" y="466.7529">LivroService</text></g><g class="participant participant-head" data-participant="Repo"><rect fill="#222222" height="30.2969" rx="2.5" ry="2.5" style="stroke:#E7E7E7;stroke-width:0.5;" width="123.3682" x="601.7134" y="50"/><text fill="#FFFFFF" font-family="sans-serif" font-size="14" lengthAdjust="spacing" textLength="109.3682" x="608.7134" y="69.9951">LivroRepository</text></g><g class="participant participant-tail" data-participant="Repo"><rect fill="#222222" height="30.2969" rx="2.5" ry="2.5" style="stroke:#E7E7E7;stroke-width:0.5;" width="123.3682" x="601.7134" y="446.7578"/><text fill="#FFFFFF" font-family="sans-serif" font-size="14" lengthAdjust="spacing" textLength="109.3682" x="608.7134" y="466.7529">LivroRepository</text></g><g class="participant participant-head" data-participant="DB"><rect fill="#222222" height="30.2969" rx="2.5" ry="2.5" style="stroke:#E7E7E7;stroke-width:0.5;" width="127.8252" x="744.0776" y="50"/><text fill="#FFFFFF" font-family="sans-serif" font-size="14" lengthAdjust="spacing" textLength="113.8252" x="751.0776" y="69.9951">Banco de Dados</text></g><g class="participant participant-tail" data-participant="DB"><rect fill="#222222" height="30.2969" rx="2.5" ry="2.5" style="stroke:#E7E7E7;stroke-width:0.5;" width="127.8252" x="744.0776" y="446.7578"/><text fill="#FFFFFF" font-family="sans-serif" font-size="14" lengthAdjust="spacing" textLength="113.8252" x="751.0776" y="466.7529">Banco de Dados</text></g><g class="message" data-participant-1="Usuario" data-participant-2="FE"><polygon fill="#E7E7E7" points="162.7642,108.4297,172.7642,112.4297,162.7642,116.4297,166.7642,112.4297" style="stroke:#E7E7E7;stroke-width:1;"/><line style="stroke:#E7E7E7;stroke-width:1;" x1="34.6021" x2="168.7642" y1="112.4297" y2="112.4297"/><text fill="#FFFFFF" font-family="sans-serif" font-size="13" lengthAdjust="spacing" textLength="116.1621" x="41.6021" y="107.3638">Clica em "Excluir"</text></g><g class="message" data-participant-1="FE" data-participant-2="FE"><line style="stroke:#E7E7E7;stroke-width:1;" x1="174.7642" x2="216.7642" y1="141.5625" y2="141.5625"/><line style="stroke:#E7E7E7;stroke-width:1;" x1="216.7642" x2="216.7642" y1="141.5625" y2="154.5625"/><line style="stroke:#E7E7E7;stroke-width:1;" x1="175.7642" x2="216.7642" y1="154.5625" y2="154.5625"/><polygon fill="#E7E7E7" points="185.7642,150.5625,175.7642,154.5625,185.7642,158.5625,181.7642,154.5625" style="stroke:#E7E7E7;stroke-width:1;"/><text fill="#FFFFFF" font-family="sans-serif" font-size="13" lengthAdjust="spacing" textLength="234.1777" x="181.7642" y="136.4966">showConfirmModal("Tem certeza?")</text></g><g class="message" data-participant-1="FE" data-participant-2="Controller"><polygon fill="#E7E7E7" points="410.9419,179.6953,420.9419,183.6953,410.9419,187.6953,414.9419,183.6953" style="stroke:#E7E7E7;stroke-width:1;"/><line style="stroke:#E7E7E7;stroke-width:1;" x1="174.7642" x2="416.9419" y1="183.6953" y2="183.6953"/><text fill="#FFFFFF" font-family="sans-serif" font-size="13" lengthAdjust="spacing" textLength="126.1216" x="181.7642" y="178.6294">DELETE /livros/{id}</text></g><g class="message" data-participant-1="Controller" data-participant-2="Service"><polygon fill="#E7E7E7" points="529.6948,208.8281,539.6948,212.8281,529.6948,216.8281,533.6948,212.8281" style="stroke:#E7E7E7;stroke-width:1;"/><line style="stroke:#E7E7E7;stroke-width:1;" x1="422.9419" x2="535.6948" y1="212.8281" y2="212.8281"/><text fill="#FFFFFF" font-family="sans-serif" font-size="13" lengthAdjust="spacing" textLength="62.9624" x="429.9419" y="207.7622">delete(id)</text></g><g class="message" data-participant-1="Service" data-participant-2="Repo"><polygon fill="#E7E7E7" points="651.3975,237.9609,661.3975,241.9609,651.3975,245.9609,655.3975,241.9609" style="stroke:#E7E7E7;stroke-width:1;"/><line style="stroke:#E7E7E7;stroke-width:1;" x1="541.6948" x2="657.3975" y1="241.9609" y2="241.9609"/><text fill="#FFFFFF" font-family="sans-serif" font-size="13" lengthAdjust="spacing" textLength="91.6602" x="548.6948" y="236.895">deleteById(id)</text></g><g class="message" data-participant-1="Repo" data-participant-2="DB"><polygon fill="#E7E7E7" points="795.9902,267.0938,805.9902,271.0938,795.9902,275.0938,799.9902,271.0938" style="stroke:#E7E7E7;stroke-width:1;"/><line style="stroke:#E7E7E7;stroke-width:1;" x1="663.3975" x2="801.9902" y1="271.0938" y2="271.0938"/><text fill="#FFFFFF" font-family="sans-serif" font-size="13" lengthAdjust="spacing" textLength="107.8467" x="670.3975" y="266.0278">Remove registro</text></g><g class="message" data-participant-1="DB" data-participant-2="Repo"><polygon fill="#E7E7E7" points="674.3975,296.2266,664.3975,300.2266,674.3975,304.2266,670.3975,300.2266" style="stroke:#E7E7E7;stroke-width:1;"/><line style="stroke:#E7E7E7;stroke-width:1;stroke-dasharray:2,2;" x1="668.3975" x2="806.9902" y1="300.2266" y2="300.2266"/><text fill="#FFFFFF" font-family="sans-serif" font-size="13" lengthAdjust="spacing" textLength="120.5928" x="680.3975" y="295.1606">Confirma remo&#231;&#227;o</text></g><g class="message" data-participant-1="Repo" data-participant-2="Service"><polygon fill="#E7E7E7" points="552.6948,325.3594,542.6948,329.3594,552.6948,333.3594,548.6948,329.3594" style="stroke:#E7E7E7;stroke-width:1;"/><line style="stroke:#E7E7E7;stroke-width:1;stroke-dasharray:2,2;" x1="546.6948" x2="662.3975" y1="329.3594" y2="329.3594"/><text fill="#FFFFFF" font-family="sans-serif" font-size="13" lengthAdjust="spacing" textLength="18.7573" x="558.6948" y="324.2935">OK</text></g><g class="message" data-participant-1="Service" data-participant-2="Controller"><polygon fill="#E7E7E7" points="433.9419,354.4922,423.9419,358.4922,433.9419,362.4922,429.9419,358.4922" style="stroke:#E7E7E7;stroke-width:1;"/><line style="stroke:#E7E7E7;stroke-width:1;stroke-dasharray:2,2;" x1="427.9419" x2="540.6948" y1="358.4922" y2="358.4922"/><text fill="#FFFFFF" font-family="sans-serif" font-size="13" lengthAdjust="spacing" textLength="18.7573" x="439.9419" y="353.4263">OK</text></g><g class="message" data-participant-1="Controller" data-participant-2="FE"><polygon fill="#E7E7E7" points="185.7642,383.625,175.7642,387.625,185.7642,391.625,181.7642,387.625" style="stroke:#E7E7E7;stroke-width:1;"/><line style="stroke:#E7E7E7;stroke-width:1;stroke-dasharray:2,2;" x1="179.7642" x2="421.9419" y1="387.625" y2="387.625"/><text fill="#FFFFFF" font-family="sans-serif" font-size="13" lengthAdjust="spacing" textLength="47.7026" x="191.7642" y="382.5591">200 OK</text></g><g class="message" data-participant-1="FE" data-participant-2="FE"><line style="stroke:#E7E7E7;stroke-width:1;" x1="174.7642" x2="216.7642" y1="416.7578" y2="416.7578"/><line style="stroke:#E7E7E7;stroke-width:1;" x1="216.7642" x2="216.7642" y1="416.7578" y2="429.7578"/><line style="stroke:#E7E7E7;stroke-width:1;" x1="175.7642" x2="216.7642" y1="429.7578" y2="429.7578"/><polygon fill="#E7E7E7" points="185.7642,425.7578,175.7642,429.7578,185.7642,433.7578,181.7642,429.7578" style="stroke:#E7E7E7;stroke-width:1;"/><text fill="#FFFFFF" font-family="sans-serif" font-size="13" lengthAdjust="spacing" textLength="135.3384" x="181.7642" y="411.6919">Remove card da tela</text></g><!--SRC=[RPBFJW8n4CRl-nIJFS61F_7eGPDbryI8CK6ycPYX7QJQtI5jGT3uD1vy45xCsKrXmN1hv_jDv_icHHNOmPDVeJESBD45eymIgm3fREKLkXVB2cr_4KhxN7LcpEyudvjD_yrtKq0FDyLfrzYi7O-u2ewj9TSmxVKC-qXkRHGrO3oVeIQqP6_4wxO1w-ifbM6b63H1Zffz0-LPaiHaqBiIft098siK0fMG5XjbLyQbYTJtgb_mXvYT6rVUiqRRIQU2AdA1Fl4wxKQspICzUJ4kfWKCR6tJ3xwC_awE0C5ZAc4rMGhKCRgRx8kYrs4EOhQzrGtGL4NDCz4cLFAQmD6hyV9o8iLUsnaje-WbxtvtFnoxJuO_tBL3_uSGxTZpVXyNms4j7Mqe6f6FeK4Z1BBu1m00]--></g></svg>