<svg xmlns="http://www.w3.org/2000/svg" xmlns:xlink="http://www.w3.org/1999/xlink" contentStyleType="text/css" data-diagram-type="CLASS" height="333px" preserveAspectRatio="none" style="width:183px;height:333px;background:#1B1B1B;" version="1.1" viewBox="0 0 183 333" width="183px" zoomAndPan="magnify"><defs/><g><rect fill="#1B1B1B" height="333" style="stroke:none;stroke-width:1;" width="183" x="0" y="0"/><!--class Autor--><g class="entity" data-entity="Autor" data-source-line="1" data-uid="ent0002" id="entity_Autor"><rect fill="#313139" height="80.5938" rx="2.5" ry="2.5" style="stroke:#E7E7E7;stroke-width:0.5;" width="125.7227" x="28.94" y="7"/><ellipse cx="68.8979" cy="23" fill="#2E5233" rx="11" ry="11" style="stroke:#E7E7E7;stroke-width:1;"/><path d="M73.0072,29 L65.2885,29 L65.2885,16.6094 L73.0072,16.6094 L73.0072,18.7656 L67.7416,18.7656 L67.7416,21.4375 L72.5072,21.4375 L72.5072,23.5938 L67.7416,23.5938 L67.7416,26.8438 L73.0072,26.8438 L73.0072,29 Z " fill="#FFFFFF"/><text fill="#FFFFFF" font-family="sans-serif" font-size="14" lengthAdjust="spacing" textLength="38.2607" x="88.4441" y="27.8467">Autor</text><line style="stroke:#E7E7E7;stroke-width:0.5;" x1="29.94" x2="153.6627" y1="39" y2="39"/><ellipse cx="39.94" cy="52.6484" fill="#000000" rx="3" ry="3" style="stroke:#000000;stroke-width:1;"/><text fill="#FFFFFF" font-family="sans-serif" font-size="14" lengthAdjust="spacing" textLength="99.7227" x="48.94" y="55.9951">id : Long &#171;PK&#187;</text><ellipse cx="39.94" cy="68.9453" fill="#000000" rx="3" ry="3" style="stroke:#000000;stroke-width:1;"/><text fill="#FFFFFF" font-family="sans-serif" font-size="14" lengthAdjust="spacing" textLength="95.0879" x="48.94" y="72.292">nome : String</text><line style="stroke:#E7E7E7;stroke-width:0.5;" x1="29.94" x2="153.6627" y1="79.5938" y2="79.5938"/></g><!--class Livro--><g class="entity" data-entity="Livro" data-source-line="5" data-uid="ent0003" id="entity_Livro"><rect fill="#313139" height="162.0781" rx="2.5" ry="2.5" style="stroke:#E7E7E7;stroke-width:0.5;" width="169.5957" x="7" y="164.59"/><ellipse cx="70.3999" cy="180.59" fill="#2E5233" rx="11" ry="11" style="stroke:#E7E7E7;stroke-width:1;"/><path d="M74.5093,186.59 L66.7905,186.59 L66.7905,174.1994 L74.5093,174.1994 L74.5093,176.3556 L69.2437,176.3556 L69.2437,179.0275 L74.0093,179.0275 L74.0093,181.1838 L69.2437,181.1838 L69.2437,184.4338 L74.5093,184.4338 L74.5093,186.59 Z " fill="#FFFFFF"/><text fill="#FFFFFF" font-family="sans-serif" font-size="14" lengthAdjust="spacing" textLength="34.2959" x="90.8999" y="185.4367">Livro</text><line style="stroke:#E7E7E7;stroke-width:0.5;" x1="8" x2="175.5957" y1="196.59" y2="196.59"/><ellipse cx="18" cy="210.2384" fill="#000000" rx="3" ry="3" style="stroke:#000000;stroke-width:1;"/><text fill="#FFFFFF" font-family="sans-serif" font-size="14" lengthAdjust="spacing" textLength="99.7227" x="27" y="213.5851">id : Long &#171;PK&#187;</text><ellipse cx="18" cy="226.5353" fill="#000000" rx="3" ry="3" style="stroke:#000000;stroke-width:1;"/><text fill="#FFFFFF" font-family="sans-serif" font-size="14" lengthAdjust="spacing" textLength="91.5947" x="27" y="229.882">titulo : String</text><ellipse cx="18" cy="242.8322" fill="#000000" rx="3" ry="3" style="stroke:#000000;stroke-width:1;"/><text fill="#FFFFFF" font-family="sans-serif" font-size="14" lengthAdjust="spacing" textLength="108.1377" x="27" y="246.1789">resumo : String</text><ellipse cx="18" cy="259.1291" fill="#000000" rx="3" ry="3" style="stroke:#000000;stroke-width:1;"/><text fill="#FFFFFF" font-family="sans-serif" font-size="14" lengthAdjust="spacing" textLength="102.8467" x="27" y="262.4757">idioma : String</text><ellipse cx="18" cy="275.4259" fill="#000000" rx="3" ry="3" style="stroke:#000000;stroke-width:1;"/><text fill="#FFFFFF" font-family="sans-serif" font-size="14" lengthAdjust="spacing" textLength="89.1406" x="27" y="278.7726">capa : String</text><ellipse cx="18" cy="291.7228" fill="#000000" rx="3" ry="3" style="stroke:#000000;stroke-width:1;"/><text fill="#FFFFFF" font-family="sans-serif" font-size="14" lengthAdjust="spacing" textLength="106.8594" x="27" y="295.0695">downloads : int</text><ellipse cx="18" cy="308.0197" fill="#000000" rx="3" ry="3" style="stroke:#000000;stroke-width:1;"/><text fill="#FFFFFF" font-family="sans-serif" font-size="14" lengthAdjust="spacing" textLength="143.5957" x="27" y="311.3664">autor_id : Long &#171;FK&#187;</text><line style="stroke:#E7E7E7;stroke-width:0.5;" x1="8" x2="175.5957" y1="318.6681" y2="318.6681"/></g><!--link Autor to Livro--><g class="link" data-entity-1="Autor" data-entity-2="Livro" data-source-line="14" data-uid="lnk4" id="link_Autor_Livro"><path codeLine="14" d="M91.8,96.03 C91.8,117.99 91.8,120.09 91.8,146.4" fill="none" id="Autor-Livro" style="stroke:#E7E7E7;stroke-width:1;"/><line style="stroke:#E7E7E7;stroke-width:1;" x1="87.8" x2="95.8" y1="92.03" y2="92.03"/><line style="stroke:#E7E7E7;stroke-width:1;" x1="87.8" x2="95.8" y1="95.03" y2="95.03"/><line style="stroke:#E7E7E7;stroke-width:1;" x1="91.8" x2="91.8" y1="96.03" y2="88.03"/><line style="stroke:#E7E7E7;stroke-width:1;" x1="91.8" x2="97.8" y1="156.4" y2="164.4"/><line style="stroke:#E7E7E7;stroke-width:1;" x1="91.8" x2="85.8" y1="156.4" y2="164.4"/><line style="stroke:#E7E7E7;stroke-width:1;" x1="91.8" x2="91.8" y1="156.4" y2="164.4"/><ellipse cx="91.8" cy="150.4" fill="none" rx="4" ry="4" style="stroke:#E7E7E7;stroke-width:1;"/><text fill="#FFFFFF" font-family="sans-serif" font-size="13" lengthAdjust="spacing" textLength="50.9526" x="92.8" y="130.6569">escreve</text></g><!--SRC=[VSyz2eD040NWVaynTS0BY0XfqiGYa0E4nHram9q9-sC8wjspguA9HTgFURmto8726yunY8DH0Po039JG27TGLRThNI_8OZ7nFJZYJiqArrn3WvD_kNGLUzcJsHpwQ0z6XiJgNslryo16NjoBDZunSLXCv-cFx_9BBf_L-jCq5OMCsz0IqBSE1_m0]--></g></svg>