<svg xmlns="http://www.w3.org/2000/svg" xmlns:xlink="http://www.w3.org/1999/xlink" contentStyleType="text/css" data-diagram-type="CLASS" height="349px" preserveAspectRatio="none" style="width:1278px;height:349px;background:#1B1B1B;" version="1.1" viewBox="0 0 1278 349" width="1278px" zoomAndPan="magnify"><defs/><g><rect fill="#1B1B1B" height="349" style="stroke:none;stroke-width:1;" width="1278" x="0" y="0"/><!--cluster bookaffix--><g class="cluster" data-entity="bookaffix" data-source-line="1" data-uid="ent0003" id="cluster_bookaffix"><path d="M498.36,6 L573.3864,6 A3.75,3.75 0 0 1 575.8864,8.5 L582.8864,28.2969 L893.36,28.2969 A2.5,2.5 0 0 1 895.86,30.7969 L895.86,167.69 A2.5,2.5 0 0 1 893.36,170.19 L498.36,170.19 A2.5,2.5 0 0 1 495.86,167.69 L495.86,8.5 A2.5,2.5 0 0 1 498.36,6" fill="none" style="stroke:#FFFFFF;stroke-width:1.5;"/><line style="stroke:#FFFFFF;stroke-width:1.5;" x1="495.86" x2="582.8864" y1="28.2969" y2="28.2969"/><text fill="#FFFFFF" font-family="sans-serif" font-size="14" font-weight="bold" lengthAdjust="spacing" textLength="74.0264" x="499.86" y="20.9951">bookaffix</text></g><!--cluster buscar_api--><g class="cluster" data-entity="buscar_api" data-source-line="8" data-uid="ent0005" id="cluster_buscar_api"><path d="M104.36,194.19 L189.5993,194.19 A3.75,3.75 0 0 1 192.0993,196.69 L199.0993,216.4869 L479.36,216.4869 A2.5,2.5 0 0 1 481.86,218.9869 L481.86,339.58 A2.5,2.5 0 0 1 479.36,342.08 L104.36,342.08 A2.5,2.5 0 0 1 101.86,339.58 L101.86,196.69 A2.5,2.5 0 0 1 104.36,194.19" fill="none" style="stroke:#FFFFFF;stroke-width:1.5;"/><line style="stroke:#FFFFFF;stroke-width:1.5;" x1="101.86" x2="199.0993" y1="216.4869" y2="216.4869"/><text fill="#FFFFFF" font-family="sans-serif" font-size="14" font-weight="bold" lengthAdjust="spacing" textLength="84.2393" x="105.86" y="209.1851">buscar_api</text></g><!--cluster buscar_local--><g class="cluster" data-entity="buscar_local" data-source-line="14" data-uid="ent0007" id="cluster_buscar_local"><path d="M508.36,202.34 L606.2936,202.34 A3.75,3.75 0 0 1 608.7936,204.84 L615.7936,224.6369 L883.36,224.6369 A2.5,2.5 0 0 1 885.86,227.1369 L885.86,331.43 A2.5,2.5 0 0 1 883.36,333.93 L508.36,333.93 A2.5,2.5 0 0 1 505.86,331.43 L505.86,204.84 A2.5,2.5 0 0 1 508.36,202.34" fill="none" style="stroke:#FFFFFF;stroke-width:1.5;"/><line style="stroke:#FFFFFF;stroke-width:1.5;" x1="505.86" x2="615.7936" y1="224.6369" y2="224.6369"/><text fill="#FFFFFF" font-family="sans-serif" font-size="14" font-weight="bold" lengthAdjust="spacing" textLength="96.9336" x="509.86" y="217.3351">buscar_local</text></g><!--cluster excluir_local--><g class="cluster" data-entity="excluir_local" data-source-line="19" data-uid="ent0009" id="cluster_excluir_local"><path d="M912.36,202.34 L1010.6149,202.34 A3.75,3.75 0 0 1 1013.1149,204.84 L1020.1149,224.6369 L1269.36,224.6369 A2.5,2.5 0 0 1 1271.86,227.1369 L1271.86,331.43 A2.5,2.5 0 0 1 1269.36,333.93 L912.36,333.93 A2.5,2.5 0 0 1 909.86,331.43 L909.86,204.84 A2.5,2.5 0 0 1 912.36,202.34" fill="none" style="stroke:#FFFFFF;stroke-width:1.5;"/><line style="stroke:#FFFFFF;stroke-width:1.5;" x1="909.86" x2="1020.1149" y1="224.6369" y2="224.6369"/><text fill="#FFFFFF" font-family="sans-serif" font-size="14" font-weight="bold" lengthAdjust="spacing" textLength="97.2549" x="913.86" y="217.3351">excluir_local</text></g><!--class js--><g class="entity" data-entity="js" data-source-line="1" data-uid="ent0002" id="entity_js"><rect fill="#313139" height="113.1875" rx="2.5" ry="2.5" style="stroke:#E7E7E7;stroke-width:0.5;" width="368.1182" x="511.8" y="41"/><ellipse cx="686.0173" cy="57" fill="#2E5233" rx="11" ry="11" style="stroke:#E7E7E7;stroke-width:1;"/><path d="M688.986,62.6406 Q688.4079,62.9375 687.7673,63.0781 Q687.1267,63.2344 686.4235,63.2344 Q683.9235,63.2344 682.5954,61.5938 Q681.2829,59.9375 681.2829,56.8125 Q681.2829,53.6875 682.5954,52.0313 Q683.9235,50.375 686.4235,50.375 Q687.1267,50.375 687.7673,50.5313 Q688.4235,50.6875 688.986,50.9844 L688.986,53.7031 Q688.361,53.125 687.7673,52.8594 Q687.1735,52.5781 686.5485,52.5781 Q685.2048,52.5781 684.5173,53.6563 Q683.8298,54.7188 683.8298,56.8125 Q683.8298,58.9063 684.5173,59.9844 Q685.2048,61.0469 686.5485,61.0469 Q687.1735,61.0469 687.7673,60.7813 Q688.361,60.5 688.986,59.9219 L688.986,62.6406 Z " fill="#FFFFFF"/><text fill="#FFFFFF" font-family="sans-serif" font-size="14" lengthAdjust="spacing" textLength="11.1836" x="706.5173" y="61.8467">js</text><line style="stroke:#E7E7E7;stroke-width:0.5;" x1="512.8" x2="878.9182" y1="73" y2="73"/><rect fill="none" height="6" style="stroke:#C82930;stroke-width:1;" width="6" x="519.8" y="83.6484"/><text fill="#FFFFFF" font-family="sans-serif" font-size="14" lengthAdjust="spacing" textLength="124.4756" x="531.8" y="89.9951">API_LOCAL: string</text><rect fill="none" height="6" style="stroke:#C82930;stroke-width:1;" width="6" x="519.8" y="99.9453"/><text fill="#FFFFFF" font-family="sans-serif" font-size="14" lengthAdjust="spacing" textLength="156.6865" x="531.8" y="106.292">API_GUTENDEX: string</text><line style="stroke:#E7E7E7;stroke-width:0.5;" x1="512.8" x2="878.9182" y1="113.5938" y2="113.5938"/><ellipse cx="522.8" cy="127.2422" fill="#84BE84" rx="3" ry="3" style="stroke:#038048;stroke-width:1;"/><text fill="#FFFFFF" font-family="sans-serif" font-size="14" lengthAdjust="spacing" textLength="235.4229" x="531.8" y="130.5889">showLoader(show: boolean): void</text><ellipse cx="522.8" cy="143.5391" fill="#84BE84" rx="3" ry="3" style="stroke:#038048;stroke-width:1;"/><text fill="#FFFFFF" font-family="sans-serif" font-size="14" lengthAdjust="spacing" textLength="342.1182" x="531.8" y="146.8857">renderBooks(books: Array, options: Object): void</text></g><!--class html--><g class="entity" data-entity="html" data-source-line="8" data-uid="ent0004" id="entity_html"><rect fill="#313139" height="96.8906" rx="2.5" ry="2.5" style="stroke:#E7E7E7;stroke-width:0.5;" width="348.5264" x="117.6" y="229.19"/><ellipse cx="271.6684" cy="245.19" fill="#2E5233" rx="11" ry="11" style="stroke:#E7E7E7;stroke-width:1;"/><path d="M274.6371,250.8306 Q274.059,251.1275 273.4184,251.2681 Q272.7777,251.4244 272.0746,251.4244 Q269.5746,251.4244 268.2465,249.7838 Q266.934,248.1275 266.934,245.0025 Q266.934,241.8775 268.2465,240.2213 Q269.5746,238.565 272.0746,238.565 Q272.7777,238.565 273.4184,238.7213 Q274.0746,238.8775 274.6371,239.1744 L274.6371,241.8931 Q274.0121,241.315 273.4184,241.0494 Q272.8246,240.7681 272.1996,240.7681 Q270.8559,240.7681 270.1684,241.8463 Q269.4809,242.9088 269.4809,245.0025 Q269.4809,247.0963 270.1684,248.1744 Q270.8559,249.2369 272.1996,249.2369 Q272.8246,249.2369 273.4184,248.9713 Q274.0121,248.69 274.6371,248.1119 L274.6371,250.8306 Z " fill="#FFFFFF"/><text fill="#FFFFFF" font-family="sans-serif" font-size="14" lengthAdjust="spacing" textLength="31.8896" x="292.1684" y="250.0367">html</text><line style="stroke:#E7E7E7;stroke-width:0.5;" x1="118.6" x2="465.1264" y1="261.19" y2="261.19"/><line style="stroke:#E7E7E7;stroke-width:0.5;" x1="118.6" x2="465.1264" y1="269.19" y2="269.19"/><ellipse cx="128.6" cy="282.8384" fill="#84BE84" rx="3" ry="3" style="stroke:#038048;stroke-width:1;"/><text fill="#FFFFFF" font-family="sans-serif" font-size="14" lengthAdjust="spacing" textLength="239.5791" x="137.6" y="286.1851">fetchApiBooks(query: string): void</text><ellipse cx="128.6" cy="299.1353" fill="#84BE84" rx="3" ry="3" style="stroke:#038048;stroke-width:1;"/><text fill="#FFFFFF" font-family="sans-serif" font-size="14" lengthAdjust="spacing" textLength="249.2383" x="137.6" y="302.482">saveBook(book, cardElement): void</text><ellipse cx="128.6" cy="315.4322" fill="#84BE84" rx="3" ry="3" style="stroke:#038048;stroke-width:1;"/><text fill="#FFFFFF" font-family="sans-serif" font-size="14" lengthAdjust="spacing" textLength="322.5264" x="137.6" y="318.7789">updateDropdowns(books, langId, subjId): void</text></g><!--class html--><g class="entity" data-entity="html" data-source-line="14" data-uid="ent0006" id="entity_html"><rect fill="#313139" height="80.5938" rx="2.5" ry="2.5" style="stroke:#E7E7E7;stroke-width:0.5;" width="348.5264" x="521.6" y="237.34"/><ellipse cx="675.6684" cy="253.34" fill="#2E5233" rx="11" ry="11" style="stroke:#E7E7E7;stroke-width:1;"/><path d="M678.6371,258.9806 Q678.059,259.2775 677.4184,259.4181 Q676.7777,259.5744 676.0746,259.5744 Q673.5746,259.5744 672.2465,257.9338 Q670.934,256.2775 670.934,253.1525 Q670.934,250.0275 672.2465,248.3712 Q673.5746,246.715 676.0746,246.715 Q676.7777,246.715 677.4184,246.8712 Q678.0746,247.0275 678.6371,247.3244 L678.6371,250.0431 Q678.0121,249.465 677.4184,249.1994 Q676.8246,248.9181 676.1996,248.9181 Q674.8559,248.9181 674.1684,249.9962 Q673.4809,251.0587 673.4809,253.1525 Q673.4809,255.2462 674.1684,256.3244 Q674.8559,257.3869 676.1996,257.3869 Q676.8246,257.3869 677.4184,257.1213 Q678.0121,256.84 678.6371,256.2619 L678.6371,258.9806 Z " fill="#FFFFFF"/><text fill="#FFFFFF" font-family="sans-serif" font-size="14" lengthAdjust="spacing" textLength="31.8896" x="696.1684" y="258.1867">html</text><line style="stroke:#E7E7E7;stroke-width:0.5;" x1="522.6" x2="869.1264" y1="269.34" y2="269.34"/><line style="stroke:#E7E7E7;stroke-width:0.5;" x1="522.6" x2="869.1264" y1="277.34" y2="277.34"/><ellipse cx="532.6" cy="290.9884" fill="#84BE84" rx="3" ry="3" style="stroke:#038048;stroke-width:1;"/><text fill="#FFFFFF" font-family="sans-serif" font-size="14" lengthAdjust="spacing" textLength="163.9873" x="541.6" y="294.3351">fetchLocalBooks(): void</text><ellipse cx="532.6" cy="307.2853" fill="#84BE84" rx="3" ry="3" style="stroke:#038048;stroke-width:1;"/><text fill="#FFFFFF" font-family="sans-serif" font-size="14" lengthAdjust="spacing" textLength="322.5264" x="541.6" y="310.632">updateDropdowns(books, langId, subjId): void</text></g><!--class html--><g class="entity" data-entity="html" data-source-line="19" data-uid="ent0008" id="entity_html"><rect fill="#313139" height="80.5938" rx="2.5" ry="2.5" style="stroke:#E7E7E7;stroke-width:0.5;" width="329.0303" x="926.35" y="237.34"/><ellipse cx="1070.6703" cy="253.34" fill="#2E5233" rx="11" ry="11" style="stroke:#E7E7E7;stroke-width:1;"/><path d="M1073.6391,258.9806 Q1073.0609,259.2775 1072.4203,259.4181 Q1071.7797,259.5744 1071.0766,259.5744 Q1068.5766,259.5744 1067.2484,257.9338 Q1065.9359,256.2775 1065.9359,253.1525 Q1065.9359,250.0275 1067.2484,248.3712 Q1068.5766,246.715 1071.0766,246.715 Q1071.7797,246.715 1072.4203,246.8712 Q1073.0766,247.0275 1073.6391,247.3244 L1073.6391,250.0431 Q1073.0141,249.465 1072.4203,249.1994 Q1071.8266,248.9181 1071.2016,248.9181 Q1069.8578,248.9181 1069.1703,249.9962 Q1068.4828,251.0587 1068.4828,253.1525 Q1068.4828,255.2462 1069.1703,256.3244 Q1069.8578,257.3869 1071.2016,257.3869 Q1071.8266,257.3869 1072.4203,257.1213 Q1073.0141,256.84 1073.6391,256.2619 L1073.6391,258.9806 Z " fill="#FFFFFF"/><text fill="#FFFFFF" font-family="sans-serif" font-size="14" lengthAdjust="spacing" textLength="31.8896" x="1091.1703" y="258.1867">html</text><line style="stroke:#E7E7E7;stroke-width:0.5;" x1="927.35" x2="1254.3803" y1="269.34" y2="269.34"/><line style="stroke:#E7E7E7;stroke-width:0.5;" x1="927.35" x2="1254.3803" y1="277.34" y2="277.34"/><ellipse cx="937.35" cy="290.9884" fill="#84BE84" rx="3" ry="3" style="stroke:#038048;stroke-width:1;"/><text fill="#FFFFFF" font-family="sans-serif" font-size="14" lengthAdjust="spacing" textLength="163.9873" x="946.35" y="294.3351">fetchLocalBooks(): void</text><ellipse cx="937.35" cy="307.2853" fill="#84BE84" rx="3" ry="3" style="stroke:#038048;stroke-width:1;"/><text fill="#FFFFFF" font-family="sans-serif" font-size="14" lengthAdjust="spacing" textLength="303.0303" x="946.35" y="310.632">deleteBook(id: number, cardElement): void</text></g><!--class CustomConfirmModal--><g class="entity" data-entity="CustomConfirmModal" data-source-line="24" data-uid="ent0010" id="entity_CustomConfirmModal"><rect fill="#313139" height="64.2969" rx="2.5" ry="2.5" style="stroke:#E7E7E7;stroke-width:0.5;" width="469.7207" x="7" y="65.45"/><ellipse cx="162.0801" cy="81.45" fill="#2E5233" rx="11" ry="11" style="stroke:#E7E7E7;stroke-width:1;"/><path d="M165.0488,87.0906 Q164.4707,87.3875 163.8301,87.5281 Q163.1895,87.6844 162.4863,87.6844 Q159.9863,87.6844 158.6582,86.0437 Q157.3457,84.3875 157.3457,81.2625 Q157.3457,78.1375 158.6582,76.4812 Q159.9863,74.825 162.4863,74.825 Q163.1895,74.825 163.8301,74.9812 Q164.4863,75.1375 165.0488,75.4344 L165.0488,78.1531 Q164.4238,77.575 163.8301,77.3094 Q163.2363,77.0281 162.6113,77.0281 Q161.2676,77.0281 160.5801,78.1062 Q159.8926,79.1687 159.8926,81.2625 Q159.8926,83.3562 160.5801,84.4344 Q161.2676,85.4969 162.6113,85.4969 Q163.2363,85.4969 163.8301,85.2312 Q164.4238,84.95 165.0488,84.3719 L165.0488,87.0906 Z " fill="#FFFFFF"/><text fill="#FFFFFF" font-family="sans-serif" font-size="14" lengthAdjust="spacing" textLength="151.0605" x="182.5801" y="86.2967">CustomConfirmModal</text><line style="stroke:#E7E7E7;stroke-width:0.5;" x1="8" x2="475.7207" y1="97.45" y2="97.45"/><line style="stroke:#E7E7E7;stroke-width:0.5;" x1="8" x2="475.7207" y1="105.45" y2="105.45"/><ellipse cx="18" cy="119.0984" fill="#84BE84" rx="3" ry="3" style="stroke:#038048;stroke-width:1;"/><text fill="#FFFFFF" font-family="sans-serif" font-size="14" lengthAdjust="spacing" textLength="443.7207" x="27" y="122.4451">showConfirmModal(message: string, onConfirm: function): void</text></g><!--reverse link js to html--><g class="link" data-entity-1="js" data-entity-2="html" data-source-line="28" data-uid="lnk11" id="link_js_html"><path codeLine="28" d="M552.1183,161.9384 C498.1083,185.7384 452.28,205.94 400.48,228.77" fill="none" id="js-backto-html" style="stroke:#E7E7E7;stroke-width:1;"/><polygon fill="none" points="568.59,154.68,549.6989,156.4478,554.5378,167.4289,568.59,154.68" style="stroke:#E7E7E7;stroke-width:1;"/></g><!--reverse link js to html--><g class="link" data-entity-1="js" data-entity-2="html" data-source-line="29" data-uid="lnk12" id="link_js_html"><path codeLine="29" d="M695.86,172.44 C695.86,199.26 695.86,212.77 695.86,237.07" fill="none" id="js-backto-html-1" style="stroke:#E7E7E7;stroke-width:1;"/><polygon fill="none" points="695.86,154.44,689.86,172.44,701.86,172.44,695.86,154.44" style="stroke:#E7E7E7;stroke-width:1;"/></g><!--reverse link js to html--><g class="link" data-entity-1="js" data-entity-2="html" data-source-line="30" data-uid="lnk13" id="link_js_html"><path codeLine="30" d="M836.7097,162.0775 C895.9597,188.7875 949.01,212.7 1002.71,236.9" fill="none" id="js-backto-html-2" style="stroke:#E7E7E7;stroke-width:1;"/><polygon fill="none" points="820.3,154.68,834.2438,167.5474,839.1755,156.6076,820.3,154.68" style="stroke:#E7E7E7;stroke-width:1;"/></g><!--SRC=[fLBBRi8m4Bpp5Nka8l01KIyfH1LIMdfefTwGOs_0rB5Jhyr3RV-zCI4q53XKlTcxuvdP7NF5Y20tveqLXToELWGVFO0X94_JUJOR9raCvApKYsFr_kKvVPoahvt606XfDfbX0cq_7ED0gP3fcnZMHeezngAk-tUr5lM38iMGMCjs4PZAIQFh-onV8NVjewzUZpV-F75cvwoIewKhrTxY00fqV9bKic5yzsXthQUkBB4r1iXUCuAQIAGAIzIkY_ALO0udrbJ2RFJ1O0IAwSLKH40-Nqt5DMFASAREh6MXsfZxln9kkVBoZr825RfcU2bYqBxCqLvSmL5dxCcPScnq8MtvO0HhTKAitNA_H2Asm7RbTOhwq8-Xy9g7I3lq9t_izdCu_9tgTSJFp1Smvulv1W00]--></g></svg>