<svg xmlns="http://www.w3.org/2000/svg" xmlns:xlink="http://www.w3.org/1999/xlink" contentStyleType="text/css" data-diagram-type="DESCRIPTION" height="633px" preserveAspectRatio="none" style="width:810px;height:633px;background:#1B1B1B;" version="1.1" viewBox="0 0 810 633" width="810px" zoomAndPan="magnify"><defs/><g><rect fill="#1B1B1B" height="633" style="stroke:none;stroke-width:1;" width="810" x="0" y="0"/><!--cluster Front-end--><g class="cluster" data-entity="Front-end" data-source-line="1" data-uid="ent0002" id="cluster_Front-end"><path d="M91.21,6 L170.2491,6 A3.75,3.75 0 0 1 172.7491,8.5 L179.7491,28.2969 L801.21,28.2969 A2.5,2.5 0 0 1 803.71,30.7969 L803.71,207.09 A2.5,2.5 0 0 1 801.21,209.59 L91.21,209.59 A2.5,2.5 0 0 1 88.71,207.09 L88.71,8.5 A2.5,2.5 0 0 1 91.21,6" fill="none" style="stroke:#FFFFFF;stroke-width:1.5;"/><line style="stroke:#FFFFFF;stroke-width:1.5;" x1="88.71" x2="179.7491" y1="28.2969" y2="28.2969"/><text fill="#FFFFFF" font-family="sans-serif" font-size="14" font-weight="bold" lengthAdjust="spacing" textLength="78.0391" x="92.71" y="20.9951">Front-end</text></g><!--cluster Back-end API (Spring Boot)--><g class="cluster" data-entity="Back-end API .Spring Boot." data-source-line="8" data-uid="ent0008" id="cluster_Back-end API .Spring Boot."><path d="M177.21,233.59 L393.3506,233.59 A3.75,3.75 0 0 1 395.8506,236.09 L402.8506,255.8869 L726.21,255.8869 A2.5,2.5 0 0 1 728.71,258.3869 L728.71,540.98 A2.5,2.5 0 0 1 726.21,543.48 L177.21,543.48 A2.5,2.5 0 0 1 174.71,540.98 L174.71,236.09 A2.5,2.5 0 0 1 177.21,233.59" fill="none" style="stroke:#FFFFFF;stroke-width:1.5;"/><line style="stroke:#FFFFFF;stroke-width:1.5;" x1="174.71" x2="402.8506" y1="255.8869" y2="255.8869"/><text fill="#FFFFFF" font-family="sans-serif" font-size="14" font-weight="bold" lengthAdjust="spacing" textLength="215.1406" x="178.71" y="248.5851">Back-end API (Spring Boot)</text></g><!--entity buscar_local.html--><g class="entity" data-entity="buscar_local.html" data-source-line="2" data-uid="ent0003" id="entity_buscar_local.html"><rect fill="#313139" height="46.2969" rx="2.5" ry="2.5" style="stroke:#E7E7E7;stroke-width:0.5;" width="163.0469" x="105.18" y="41"/><rect fill="#313139" height="10" style="stroke:#E7E7E7;stroke-width:0.5;" width="15" x="248.2269" y="46"/><rect fill="#313139" height="2" style="stroke:#E7E7E7;stroke-width:0.5;" width="4" x="246.2269" y="48"/><rect fill="#313139" height="2" style="stroke:#E7E7E7;stroke-width:0.5;" width="4" x="246.2269" y="52"/><text fill="#FFFFFF" font-family="sans-serif" font-size="14" lengthAdjust="spacing" textLength="123.0469" x="120.18" y="73.9951">buscar_local.html</text></g><!--entity buscar_api.html--><g class="entity" data-entity="buscar_api.html" data-source-line="3" data-uid="ent0004" id="entity_buscar_api.html"><rect fill="#313139" height="46.2969" rx="2.5" ry="2.5" style="stroke:#E7E7E7;stroke-width:0.5;" width="151.7813" x="302.82" y="41"/><rect fill="#313139" height="10" style="stroke:#E7E7E7;stroke-width:0.5;" width="15" x="434.6013" y="46"/><rect fill="#313139" height="2" style="stroke:#E7E7E7;stroke-width:0.5;" width="4" x="432.6013" y="48"/><rect fill="#313139" height="2" style="stroke:#E7E7E7;stroke-width:0.5;" width="4" x="432.6013" y="52"/><text fill="#FFFFFF" font-family="sans-serif" font-size="14" lengthAdjust="spacing" textLength="111.7813" x="317.82" y="73.9951">buscar_api.html</text></g><!--entity excluir_local.html--><g class="entity" data-entity="excluir_local.html" data-source-line="4" data-uid="ent0005" id="entity_excluir_local.html"><rect fill="#313139" height="46.2969" rx="2.5" ry="2.5" style="stroke:#E7E7E7;stroke-width:0.5;" width="162.9648" x="489.23" y="41"/><rect fill="#313139" height="10" style="stroke:#E7E7E7;stroke-width:0.5;" width="15" x="632.1948" y="46"/><rect fill="#313139" height="2" style="stroke:#E7E7E7;stroke-width:0.5;" width="4" x="630.1948" y="48"/><rect fill="#313139" height="2" style="stroke:#E7E7E7;stroke-width:0.5;" width="4" x="630.1948" y="52"/><text fill="#FFFFFF" font-family="sans-serif" font-size="14" lengthAdjust="spacing" textLength="122.9648" x="504.23" y="73.9951">excluir_local.html</text></g><!--entity style.css--><g class="entity" data-entity="style.css" data-source-line="5" data-uid="ent0006" id="entity_style.css"><rect fill="#313139" height="46.2969" rx="2.5" ry="2.5" style="stroke:#E7E7E7;stroke-width:0.5;" width="100.3066" x="687.55" y="41"/><rect fill="#313139" height="10" style="stroke:#E7E7E7;stroke-width:0.5;" width="15" x="767.8566" y="46"/><rect fill="#313139" height="2" style="stroke:#E7E7E7;stroke-width:0.5;" width="4" x="765.8566" y="48"/><rect fill="#313139" height="2" style="stroke:#E7E7E7;stroke-width:0.5;" width="4" x="765.8566" y="52"/><text fill="#FFFFFF" font-family="sans-serif" font-size="14" lengthAdjust="spacing" textLength="60.3066" x="702.55" y="73.9951">style.css</text></g><!--entity bookaffix.js--><g class="entity" data-entity="bookaffix.js" data-source-line="6" data-uid="ent0007" id="entity_bookaffix.js"><rect fill="#313139" height="46.2969" rx="2.5" ry="2.5" style="stroke:#E7E7E7;stroke-width:0.5;" width="120.3701" x="318.52" y="147.3"/><rect fill="#313139" height="10" style="stroke:#E7E7E7;stroke-width:0.5;" width="15" x="418.8901" y="152.3"/><rect fill="#313139" height="2" style="stroke:#E7E7E7;stroke-width:0.5;" width="4" x="416.8901" y="154.3"/><rect fill="#313139" height="2" style="stroke:#E7E7E7;stroke-width:0.5;" width="4" x="416.8901" y="158.3"/><text fill="#FFFFFF" font-family="sans-serif" font-size="14" lengthAdjust="spacing" textLength="80.3701" x="333.52" y="180.2951">bookaffix.js</text></g><!--entity LivroController--><g class="entity" data-entity="LivroController" data-source-line="9" data-uid="ent0009" id="entity_LivroController"><rect fill="#313139" height="46.2969" rx="2.5" ry="2.5" style="stroke:#E7E7E7;stroke-width:0.5;" width="143.4688" x="380.97" y="268.59"/><rect fill="#313139" height="10" style="stroke:#E7E7E7;stroke-width:0.5;" width="15" x="504.4388" y="273.59"/><rect fill="#313139" height="2" style="stroke:#E7E7E7;stroke-width:0.5;" width="4" x="502.4388" y="275.59"/><rect fill="#313139" height="2" style="stroke:#E7E7E7;stroke-width:0.5;" width="4" x="502.4388" y="279.59"/><text fill="#FFFFFF" font-family="sans-serif" font-size="14" lengthAdjust="spacing" textLength="103.4688" x="395.97" y="301.5851">LivroController</text></g><!--entity AutorController--><g class="entity" data-entity="AutorController" data-source-line="10" data-uid="ent0010" id="entity_AutorController"><rect fill="#313139" height="46.2969" rx="2.5" ry="2.5" style="stroke:#E7E7E7;stroke-width:0.5;" width="147.4336" x="195.99" y="268.59"/><rect fill="#313139" height="10" style="stroke:#E7E7E7;stroke-width:0.5;" width="15" x="323.4236" y="273.59"/><rect fill="#313139" height="2" style="stroke:#E7E7E7;stroke-width:0.5;" width="4" x="321.4236" y="275.59"/><rect fill="#313139" height="2" style="stroke:#E7E7E7;stroke-width:0.5;" width="4" x="321.4236" y="279.59"/><text fill="#FFFFFF" font-family="sans-serif" font-size="14" lengthAdjust="spacing" textLength="107.4336" x="210.99" y="301.5851">AutorController</text></g><!--entity LivroService--><g class="entity" data-entity="LivroService" data-source-line="11" data-uid="ent0011" id="entity_LivroService"><rect fill="#313139" height="46.2969" rx="2.5" ry="2.5" style="stroke:#E7E7E7;stroke-width:0.5;" width="126.0371" x="390.69" y="374.89"/><rect fill="#313139" height="10" style="stroke:#E7E7E7;stroke-width:0.5;" width="15" x="496.7271" y="379.89"/><rect fill="#313139" height="2" style="stroke:#E7E7E7;stroke-width:0.5;" width="4" x="494.7271" y="381.89"/><rect fill="#313139" height="2" style="stroke:#E7E7E7;stroke-width:0.5;" width="4" x="494.7271" y="385.89"/><text fill="#FFFFFF" font-family="sans-serif" font-size="14" lengthAdjust="spacing" textLength="86.0371" x="405.69" y="407.8851">LivroService</text></g><!--entity AutorService--><g class="entity" data-entity="AutorService" data-source-line="12" data-uid="ent0012" id="entity_AutorService"><rect fill="#313139" height="46.2969" rx="2.5" ry="2.5" style="stroke:#E7E7E7;stroke-width:0.5;" width="130.002" x="203.71" y="374.89"/><rect fill="#313139" height="10" style="stroke:#E7E7E7;stroke-width:0.5;" width="15" x="313.712" y="379.89"/><rect fill="#313139" height="2" style="stroke:#E7E7E7;stroke-width:0.5;" width="4" x="311.712" y="381.89"/><rect fill="#313139" height="2" style="stroke:#E7E7E7;stroke-width:0.5;" width="4" x="311.712" y="385.89"/><text fill="#FFFFFF" font-family="sans-serif" font-size="14" lengthAdjust="spacing" textLength="90.002" x="218.71" y="407.8851">AutorService</text></g><!--entity GutendexClient--><g class="entity" data-entity="GutendexClient" data-source-line="13" data-uid="ent0013" id="entity_GutendexClient"><rect fill="#313139" height="46.2969" rx="2.5" ry="2.5" style="stroke:#E7E7E7;stroke-width:0.5;" width="149.0127" x="563.2" y="481.19"/><rect fill="#313139" height="10" style="stroke:#E7E7E7;stroke-width:0.5;" width="15" x="692.2127" y="486.19"/><rect fill="#313139" height="2" style="stroke:#E7E7E7;stroke-width:0.5;" width="4" x="690.2127" y="488.19"/><rect fill="#313139" height="2" style="stroke:#E7E7E7;stroke-width:0.5;" width="4" x="690.2127" y="492.19"/><text fill="#FFFFFF" font-family="sans-serif" font-size="14" lengthAdjust="spacing" textLength="109.0127" x="578.2" y="514.1851">GutendexClient</text></g><!--entity LivroRepository--><g class="entity" data-entity="LivroRepository" data-source-line="14" data-uid="ent0014" id="entity_LivroRepository"><rect fill="#313139" height="46.2969" rx="2.5" ry="2.5" style="stroke:#E7E7E7;stroke-width:0.5;" width="149.3682" x="379.02" y="481.19"/><rect fill="#313139" height="10" style="stroke:#E7E7E7;stroke-width:0.5;" width="15" x="508.3882" y="486.19"/><rect fill="#313139" height="2" style="stroke:#E7E7E7;stroke-width:0.5;" width="4" x="506.3882" y="488.19"/><rect fill="#313139" height="2" style="stroke:#E7E7E7;stroke-width:0.5;" width="4" x="506.3882" y="492.19"/><text fill="#FFFFFF" font-family="sans-serif" font-size="14" lengthAdjust="spacing" textLength="109.3682" x="394.02" y="514.1851">LivroRepository</text></g><!--entity AutorRepository--><g class="entity" data-entity="AutorRepository" data-source-line="15" data-uid="ent0015" id="entity_AutorRepository"><rect fill="#313139" height="46.2969" rx="2.5" ry="2.5" style="stroke:#E7E7E7;stroke-width:0.5;" width="153.333" x="191.04" y="481.19"/><rect fill="#313139" height="10" style="stroke:#E7E7E7;stroke-width:0.5;" width="15" x="324.373" y="486.19"/><rect fill="#313139" height="2" style="stroke:#E7E7E7;stroke-width:0.5;" width="4" x="322.373" y="488.19"/><rect fill="#313139" height="2" style="stroke:#E7E7E7;stroke-width:0.5;" width="4" x="322.373" y="492.19"/><text fill="#FFFFFF" font-family="sans-serif" font-size="14" lengthAdjust="spacing" textLength="113.333" x="206.04" y="514.1851">AutorRepository</text></g><!--entity Banco de Dados--><g class="entity" data-entity="Banco de Dados" data-source-line="17" data-uid="ent0016" id="entity_Banco de Dados"><path d="M93.05,587.48 L232.3576,587.48 A3.75,3.75 0 0 1 234.8576,589.98 L241.8576,609.7769 L256.3576,609.7769 A2.5,2.5 0 0 1 258.8576,612.2769 L258.8576,624.2769 A2.5,2.5 0 0 1 256.3576,626.7769 L93.05,626.7769 A2.5,2.5 0 0 1 90.55,624.2769 L90.55,589.98 A2.5,2.5 0 0 1 93.05,587.48" fill="#313139" style="stroke:#E7E7E7;stroke-width:0.5;"/><line style="stroke:#E7E7E7;stroke-width:0.5;" x1="90.55" x2="241.8576" y1="609.7769" y2="609.7769"/><text fill="#FFFFFF" font-family="sans-serif" font-size="14" font-weight="bold" lengthAdjust="spacing" textLength="126.3076" x="100.55" y="603.4751">Banco de Dados</text></g><!--entity API Externa Gutendex--><g class="entity" data-entity="API Externa Gutendex" data-source-line="18" data-uid="ent0017" id="entity_API Externa Gutendex"><path d="M532.55,587.48 L718.8615,587.48 A3.75,3.75 0 0 1 721.3615,589.98 L728.3615,609.7769 L742.8615,609.7769 A2.5,2.5 0 0 1 745.3615,612.2769 L745.3615,624.2769 A2.5,2.5 0 0 1 742.8615,626.7769 L532.55,626.7769 A2.5,2.5 0 0 1 530.05,624.2769 L530.05,589.98 A2.5,2.5 0 0 1 532.55,587.48" fill="#313139" style="stroke:#E7E7E7;stroke-width:0.5;"/><line style="stroke:#E7E7E7;stroke-width:0.5;" x1="530.05" x2="728.3615" y1="609.7769" y2="609.7769"/><text fill="#FFFFFF" font-family="sans-serif" font-size="14" font-weight="bold" lengthAdjust="spacing" textLength="173.3115" x="540.05" y="603.4751">API Externa Gutendex</text></g><!--entity LivreRepository--><g class="entity" data-entity="LivreRepository" data-source-line="31" data-uid="ent0029" id="entity_LivreRepository"><rect fill="#313139" height="46.2969" rx="2.5" ry="2.5" style="stroke:#E7E7E7;stroke-width:0.5;" width="149.416" x="7" y="481.19"/><rect fill="#313139" height="10" style="stroke:#E7E7E7;stroke-width:0.5;" width="15" x="136.416" y="486.19"/><rect fill="#313139" height="2" style="stroke:#E7E7E7;stroke-width:0.5;" width="4" x="134.416" y="488.19"/><rect fill="#313139" height="2" style="stroke:#E7E7E7;stroke-width:0.5;" width="4" x="134.416" y="492.19"/><text fill="#FFFFFF" font-family="sans-serif" font-size="14" lengthAdjust="spacing" textLength="109.416" x="22" y="514.1851">LivreRepository</text></g><!--link buscar_local.html to bookaffix.js--><g class="link" data-entity-1="buscar_local.html" data-entity-2="bookaffix.js" data-source-line="20" data-uid="lnk18" id="link_buscar_local.html_bookaffix.js"><path d="M228.37,87.78 C260.57,105.27 299.6679,126.5055 331.8579,143.9955" fill="none" id="buscar_local.html-to-bookaffix.js" style="stroke:#E7E7E7;stroke-width:1;"/><polygon fill="#E7E7E7" points="337.13,146.86,331.1316,139.0485,332.7366,144.4729,327.3122,146.078,337.13,146.86" style="stroke:#E7E7E7;stroke-width:1;"/></g><!--link buscar_api.html to bookaffix.js--><g class="link" data-entity-1="buscar_api.html" data-entity-2="bookaffix.js" data-source-line="21" data-uid="lnk19" id="link_buscar_api.html_bookaffix.js"><path d="M378.71,87.78 C378.71,105.27 378.71,123.37 378.71,140.86" fill="none" id="buscar_api.html-to-bookaffix.js" style="stroke:#E7E7E7;stroke-width:1;"/><polygon fill="#E7E7E7" points="378.71,146.86,382.71,137.86,378.71,141.86,374.71,137.86,378.71,146.86" style="stroke:#E7E7E7;stroke-width:1;"/></g><!--link excluir_local.html to bookaffix.js--><g class="link" data-entity-1="excluir_local.html" data-entity-2="bookaffix.js" data-source-line="22" data-uid="lnk20" id="link_excluir_local.html_bookaffix.js"><path d="M529.05,87.78 C496.84,105.27 457.7417,126.5048 425.5617,143.9948" fill="none" id="excluir_local.html-to-bookaffix.js" style="stroke:#E7E7E7;stroke-width:1;"/><polygon fill="#E7E7E7" points="420.29,146.86,430.1077,146.0767,424.6831,144.4723,426.2874,139.0478,420.29,146.86" style="stroke:#E7E7E7;stroke-width:1;"/></g><!--link bookaffix.js to LivroController--><g class="link" data-entity-1="bookaffix.js" data-entity-2="LivroController" data-source-line="23" data-uid="lnk21" id="link_bookaffix.js_LivroController"><path d="M392.63,193.88 C405.86,215.21 422.4766,242.0117 435.6866,263.3017" fill="none" id="bookaffix.js-to-LivroController" style="stroke:#E7E7E7;stroke-width:1;stroke-dasharray:7,7;"/><polygon fill="#E7E7E7" points="438.85,268.4,437.5038,258.6436,436.2138,264.1514,430.706,262.8615,438.85,268.4" style="stroke:#E7E7E7;stroke-width:1;"/></g><!--link bookaffix.js to AutorController--><g class="link" data-entity-1="bookaffix.js" data-entity-2="AutorController" data-source-line="24" data-uid="lnk22" id="link_bookaffix.js_AutorController"><path d="M358.21,193.88 C338.72,215.21 313.628,242.6813 294.168,263.9713" fill="none" id="bookaffix.js-to-AutorController" style="stroke:#E7E7E7;stroke-width:1;stroke-dasharray:7,7;"/><polygon fill="#E7E7E7" points="290.12,268.4,299.1445,264.4556,293.4934,264.7094,293.2396,259.0583,290.12,268.4" style="stroke:#E7E7E7;stroke-width:1;"/></g><!--link LivroController to LivroService--><g class="link" data-entity-1="LivroController" data-entity-2="LivroService" data-source-line="25" data-uid="lnk23" id="link_LivroController_LivroService"><path d="M452.92,315.37 C453.09,332.87 453.2617,350.9703 453.4317,368.4503" fill="none" id="LivroController-to-LivroService" style="stroke:#E7E7E7;stroke-width:1;"/><polygon fill="#E7E7E7" points="453.49,374.45,457.4023,365.4115,453.4414,369.4502,449.4027,365.4893,453.49,374.45" style="stroke:#E7E7E7;stroke-width:1;"/></g><!--link AutorController to AutorService--><g class="link" data-entity-1="AutorController" data-entity-2="AutorService" data-source-line="26" data-uid="lnk24" id="link_AutorController_AutorService"><path d="M269.49,315.37 C269.32,332.87 269.1483,350.9703 268.9783,368.4503" fill="none" id="AutorController-to-AutorService" style="stroke:#E7E7E7;stroke-width:1;"/><polygon fill="#E7E7E7" points="268.92,374.45,273.0073,365.4893,268.9686,369.4502,265.0077,365.4115,268.92,374.45" style="stroke:#E7E7E7;stroke-width:1;"/></g><!--link LivroService to LivroRepository--><g class="link" data-entity-1="LivroService" data-entity-2="LivroRepository" data-source-line="27" data-uid="lnk25" id="link_LivroService_LivroRepository"><path d="M453.71,421.67 C453.71,439.16 453.71,457.27 453.71,474.75" fill="none" id="LivroService-to-LivroRepository" style="stroke:#E7E7E7;stroke-width:1;"/><polygon fill="#E7E7E7" points="453.71,480.75,457.71,471.75,453.71,475.75,449.71,471.75,453.71,480.75" style="stroke:#E7E7E7;stroke-width:1;"/></g><!--link AutorService to AutorRepository--><g class="link" data-entity-1="AutorService" data-entity-2="AutorRepository" data-source-line="28" data-uid="lnk26" id="link_AutorService_AutorRepository"><path d="M268.49,421.67 C268.32,439.16 268.1483,457.2703 267.9783,474.7503" fill="none" id="AutorService-to-AutorRepository" style="stroke:#E7E7E7;stroke-width:1;"/><polygon fill="#E7E7E7" points="267.92,480.75,272.0073,471.7893,267.9686,475.7502,264.0077,471.7115,267.92,480.75" style="stroke:#E7E7E7;stroke-width:1;"/></g><!--link LivroService to GutendexClient--><g class="link" data-entity-1="LivroService" data-entity-2="GutendexClient" data-source-line="29" data-uid="lnk27" id="link_LivroService_GutendexClient"><path d="M493.63,421.67 C524.5,439.16 561.8002,460.3114 592.6402,477.7914" fill="none" id="LivroService-to-GutendexClient" style="stroke:#E7E7E7;stroke-width:1;stroke-dasharray:7,7;"/><polygon fill="#E7E7E7" points="597.86,480.75,592.0026,472.8322,593.5101,478.2845,588.0578,479.792,597.86,480.75" style="stroke:#E7E7E7;stroke-width:1;"/></g><!--link GutendexClient to API Externa Gutendex--><g class="link" data-entity-1="GutendexClient" data-entity-2="API Externa Gutendex" data-source-line="30" data-uid="lnk28" id="link_GutendexClient_API Externa Gutendex"><path d="M637.71,527.96 C637.71,545.83 637.71,564.49 637.71,581.3" fill="none" id="GutendexClient-to-API Externa Gutendex" style="stroke:#E7E7E7;stroke-width:1;stroke-dasharray:7,7;"/><polygon fill="#E7E7E7" points="637.71,587.3,641.71,578.3,637.71,582.3,633.71,578.3,637.71,587.3" style="stroke:#E7E7E7;stroke-width:1;"/></g><!--link LivreRepository to Banco de Dados--><g class="link" data-entity-1="LivreRepository" data-entity-2="Banco de Dados" data-source-line="31" data-uid="lnk30" id="link_LivreRepository_Banco de Dados"><path d="M102.58,527.96 C119.07,545.83 137.7499,566.0816 153.2699,582.8916" fill="none" id="LivreRepository-to-Banco de Dados" style="stroke:#E7E7E7;stroke-width:1;stroke-dasharray:7,7;"/><polygon fill="#E7E7E7" points="157.34,587.3,154.1738,577.974,153.9482,583.6263,148.2959,583.4008,157.34,587.3" style="stroke:#E7E7E7;stroke-width:1;"/></g><!--link AutorRepository to Banco de Dados--><g class="link" data-entity-1="AutorRepository" data-entity-2="Banco de Dados" data-source-line="32" data-uid="lnk31" id="link_AutorRepository_Banco de Dados"><path d="M246.84,527.96 C230.34,545.83 211.6587,566.0803 196.1487,582.8903" fill="none" id="AutorRepository-to-Banco de Dados" style="stroke:#E7E7E7;stroke-width:1;stroke-dasharray:7,7;"/><polygon fill="#E7E7E7" points="192.08,587.3,201.1229,583.3979,195.4706,583.6252,195.2432,577.9729,192.08,587.3" style="stroke:#E7E7E7;stroke-width:1;"/></g><!--SRC=[XL79QiCm4BtxAmQVseFr2O4aNIZqK9fZAKML9waILMCaEJYK_diTBqYo1BtPps_pcuQB4pyWb0-6jAjGroNy501ldwqLt7me4bonB_UjtWEKDz9Zs0dLoeHgtKKX4zQEGg8Jt-zbnuuzy5iqS-wcVxZ6mlhb2MvsZP7w01iYTpiLUPPdGzk-d26bq0nkwzQHMM03RuVcB0LwKWWyjguFmcwh96hdHQ_Oa9Kz-U9r8HQrrOAWHhZZDTdIVxYsl-yS6irXpYcB8ZCZLDLgkKUoQvQK6Jfl5hu2OwlCY3bIiceY6-FYfHFPI8hNZpM1JRXph0bi8bBiD1HV7dO9JB-NET7aXq72I8uFFNVxZ_O7]--></g></svg>