<svg xmlns="http://www.w3.org/2000/svg" xmlns:xlink="http://www.w3.org/1999/xlink" contentStyleType="text/css" data-diagram-type="ACTIVITY" height="671px" preserveAspectRatio="none" style="width:475px;height:671px;background:#1B1B1B;" version="1.1" viewBox="0 0 475 671" width="475px" zoomAndPan="magnify"><defs/><g><rect fill="#1B1B1B" height="671" style="stroke:none;stroke-width:1;" width="475" x="0" y="0"/><ellipse cx="249.4326" cy="20" fill="#DDDDDD" rx="10" ry="10" style="stroke:#DDDDDD;stroke-width:1;"/><rect fill="#313139" height="33.9688" rx="12.5" ry="12.5" style="stroke:#E7E7E7;stroke-width:0.5;" width="174.8633" x="162.001" y="50"/><text fill="#FFFFFF" font-family="sans-serif" font-size="12" lengthAdjust="spacing" textLength="154.8633" x="172.001" y="71.1387">Usu&#225;rio clica em "Excluir"</text><rect fill="#313139" height="33.9688" rx="12.5" ry="12.5" style="stroke:#E7E7E7;stroke-width:0.5;" width="266.2578" x="116.3037" y="103.9688"/><text fill="#FFFFFF" font-family="sans-serif" font-size="12" lengthAdjust="spacing" textLength="246.2578" x="126.3037" y="125.1074">Abre modal de confirma&#231;&#227;o customizada</text><polygon fill="#313139" points="202.4543,157.9375,296.4109,157.9375,308.4109,169.9375,296.4109,181.9375,202.4543,181.9375,190.4543,169.9375,202.4543,157.9375" style="stroke:#E7E7E7;stroke-width:0.5;"/><text fill="#FFFFFF" font-family="sans-serif" font-size="11" lengthAdjust="spacing" textLength="93.9565" x="202.4543" y="173.7456">Usu&#225;rio confirma</text><text fill="#FFFFFF" font-family="sans-serif" font-size="11" lengthAdjust="spacing" textLength="20.7539" x="169.7004" y="167.3433">Sim</text><text fill="#FFFFFF" font-family="sans-serif" font-size="11" lengthAdjust="spacing" textLength="21.6992" x="308.4109" y="167.3433">N&#227;o</text><rect fill="#313139" height="33.9688" rx="12.5" ry="12.5" style="stroke:#E7E7E7;stroke-width:0.5;" width="94.7949" x="83.6689" y="191.9375"/><text fill="#FFFFFF" font-family="sans-serif" font-size="12" lengthAdjust="spacing" textLength="74.7949" x="93.6689" y="213.0762">Exibe loader</text><rect fill="#313139" height="33.9688" rx="12.5" ry="12.5" style="stroke:#E7E7E7;stroke-width:0.5;" width="173.082" x="44.5254" y="245.9063"/><text fill="#FFFFFF" font-family="sans-serif" font-size="12" lengthAdjust="spacing" textLength="153.082" x="54.5254" y="267.0449">JS faz DELETE /livros/{id}</text><rect fill="none" height="190.2031" style="stroke:#FFFFFF;stroke-width:1.5;" width="240.1328" x="11" y="289.875"/><path d="M81.3613,289.875 L81.3613,299.1719 L71.3613,309.1719 L11,309.1719" fill="none" style="stroke:#FFFFFF;stroke-width:1.5;"/><text fill="#FFFFFF" font-family="sans-serif" font-size="14" lengthAdjust="spacing" textLength="60.3613" x="14" y="303.8701">Backend</text><rect fill="#313139" height="33.9688" rx="12.5" ry="12.5" style="stroke:#E7E7E7;stroke-width:0.5;" width="203.6152" x="29.2588" y="326.1719"/><text fill="#FFFFFF" font-family="sans-serif" font-size="12" lengthAdjust="spacing" textLength="183.6152" x="39.2588" y="347.3105">LivroController recebe DELETE</text><rect fill="#313139" height="33.9688" rx="12.5" ry="12.5" style="stroke:#E7E7E7;stroke-width:0.5;" width="202.4961" x="29.8184" y="380.1406"/><text fill="#FFFFFF" font-family="sans-serif" font-size="12" lengthAdjust="spacing" textLength="182.4961" x="39.8184" y="401.2793">LivroService remove do banco</text><rect fill="#313139" height="33.9688" rx="12.5" ry="12.5" style="stroke:#E7E7E7;stroke-width:0.5;" width="220.1328" x="21" y="434.1094"/><text fill="#FFFFFF" font-family="sans-serif" font-size="12" lengthAdjust="spacing" textLength="200.1328" x="31" y="455.248">LivroController responde sucesso</text><rect fill="#313139" height="33.9688" rx="12.5" ry="12.5" style="stroke:#E7E7E7;stroke-width:0.5;" width="100.8184" x="80.6572" y="500.0781"/><text fill="#FFFFFF" font-family="sans-serif" font-size="12" lengthAdjust="spacing" textLength="80.8184" x="90.6572" y="521.2168">Oculta loader</text><rect fill="#313139" height="33.9688" rx="12.5" ry="12.5" style="stroke:#E7E7E7;stroke-width:0.5;" width="131.252" x="65.4404" y="554.0469"/><text fill="#FFFFFF" font-family="sans-serif" font-size="12" lengthAdjust="spacing" textLength="111.252" x="75.4404" y="575.1855">Livro some da tela</text><rect fill="#313139" height="33.9688" rx="12.5" ry="12.5" style="stroke:#E7E7E7;stroke-width:0.5;" width="193.332" x="271.1328" y="191.9375"/><text fill="#FFFFFF" font-family="sans-serif" font-size="12" lengthAdjust="spacing" textLength="173.332" x="281.1328" y="213.0762">Fecha modal, nada acontece</text><polygon fill="#313139" points="249.4326,594.0156,261.4326,606.0156,249.4326,618.0156,237.4326,606.0156,249.4326,594.0156" style="stroke:#E7E7E7;stroke-width:0.5;"/><ellipse cx="249.4326" cy="649.0156" fill="none" rx="11" ry="11" style="stroke:#DDDDDD;stroke-width:1;"/><ellipse cx="249.4326" cy="649.0156" fill="#DDDDDD" rx="6" ry="6" style="stroke:#DDDDDD;stroke-width:1;"/><line style="stroke:#E7E7E7;stroke-width:1;" x1="249.4326" x2="249.4326" y1="30" y2="50"/><polygon fill="#E7E7E7" points="245.4326,40,249.4326,50,253.4326,40,249.4326,44" style="stroke:#E7E7E7;stroke-width:1;"/><line style="stroke:#E7E7E7;stroke-width:1;" x1="249.4326" x2="249.4326" y1="83.9688" y2="103.9688"/><polygon fill="#E7E7E7" points="245.4326,93.9688,249.4326,103.9688,253.4326,93.9688,249.4326,97.9688" style="stroke:#E7E7E7;stroke-width:1;"/><line style="stroke:#E7E7E7;stroke-width:1;" x1="131.0664" x2="131.0664" y1="225.9063" y2="245.9063"/><polygon fill="#E7E7E7" points="127.0664,235.9063,131.0664,245.9063,135.0664,235.9063,131.0664,239.9063" style="stroke:#E7E7E7;stroke-width:1;"/><line style="stroke:#E7E7E7;stroke-width:1;" x1="131.0664" x2="131.0664" y1="360.1406" y2="380.1406"/><polygon fill="#E7E7E7" points="127.0664,370.1406,131.0664,380.1406,135.0664,370.1406,131.0664,374.1406" style="stroke:#E7E7E7;stroke-width:1;"/><line style="stroke:#E7E7E7;stroke-width:1;" x1="131.0664" x2="131.0664" y1="414.1094" y2="434.1094"/><polygon fill="#E7E7E7" points="127.0664,424.1094,131.0664,434.1094,135.0664,424.1094,131.0664,428.1094" style="stroke:#E7E7E7;stroke-width:1;"/><line style="stroke:#E7E7E7;stroke-width:1;" x1="131.0664" x2="131.0664" y1="279.875" y2="326.1719"/><polygon fill="#E7E7E7" points="127.0664,316.1719,131.0664,326.1719,135.0664,316.1719,131.0664,320.1719" style="stroke:#E7E7E7;stroke-width:1;"/><line style="stroke:#E7E7E7;stroke-width:1;" x1="131.0664" x2="131.0664" y1="468.0781" y2="500.0781"/><polygon fill="#E7E7E7" points="127.0664,490.0781,131.0664,500.0781,135.0664,490.0781,131.0664,494.0781" style="stroke:#E7E7E7;stroke-width:1;"/><line style="stroke:#E7E7E7;stroke-width:1;" x1="131.0664" x2="131.0664" y1="534.0469" y2="554.0469"/><polygon fill="#E7E7E7" points="127.0664,544.0469,131.0664,554.0469,135.0664,544.0469,131.0664,548.0469" style="stroke:#E7E7E7;stroke-width:1;"/><line style="stroke:#E7E7E7;stroke-width:1;" x1="190.4543" x2="131.0664" y1="169.9375" y2="169.9375"/><line style="stroke:#E7E7E7;stroke-width:1;" x1="131.0664" x2="131.0664" y1="169.9375" y2="191.9375"/><polygon fill="#E7E7E7" points="127.0664,181.9375,131.0664,191.9375,135.0664,181.9375,131.0664,185.9375" style="stroke:#E7E7E7;stroke-width:1;"/><line style="stroke:#E7E7E7;stroke-width:1;" x1="308.4109" x2="367.7988" y1="169.9375" y2="169.9375"/><line style="stroke:#E7E7E7;stroke-width:1;" x1="367.7988" x2="367.7988" y1="169.9375" y2="191.9375"/><polygon fill="#E7E7E7" points="363.7988,181.9375,367.7988,191.9375,371.7988,181.9375,367.7988,185.9375" style="stroke:#E7E7E7;stroke-width:1;"/><line style="stroke:#E7E7E7;stroke-width:1;" x1="131.0664" x2="131.0664" y1="588.0156" y2="606.0156"/><line style="stroke:#E7E7E7;stroke-width:1;" x1="131.0664" x2="237.4326" y1="606.0156" y2="606.0156"/><polygon fill="#E7E7E7" points="227.4326,602.0156,237.4326,606.0156,227.4326,610.0156,231.4326,606.0156" style="stroke:#E7E7E7;stroke-width:1;"/><line style="stroke:#E7E7E7;stroke-width:1;" x1="367.7988" x2="367.7988" y1="225.9063" y2="606.0156"/><line style="stroke:#E7E7E7;stroke-width:1;" x1="367.7988" x2="261.4326" y1="606.0156" y2="606.0156"/><polygon fill="#E7E7E7" points="271.4326,602.0156,261.4326,606.0156,271.4326,610.0156,267.4326,606.0156" style="stroke:#E7E7E7;stroke-width:1;"/><line style="stroke:#E7E7E7;stroke-width:1;" x1="249.4326" x2="249.4326" y1="137.9375" y2="157.9375"/><polygon fill="#E7E7E7" points="245.4326,147.9375,249.4326,157.9375,253.4326,147.9375,249.4326,151.9375" style="stroke:#E7E7E7;stroke-width:1;"/><line style="stroke:#E7E7E7;stroke-width:1;" x1="249.4326" x2="249.4326" y1="618.0156" y2="638.0156"/><polygon fill="#E7E7E7" points="245.4326,628.0156,249.4326,638.0156,253.4326,628.0156,249.4326,632.0156" style="stroke:#E7E7E7;stroke-width:1;"/><!--SRC=[TP0zRW9138NxFSLJAf0YqRDLVZP5X9A2v01cnYkip8pHp2n280uJfSX1k5Yy42aqQUtFJyzVgPHhCtylm-apYy85SGIEkEbsBWoIRzfcVhVAZAYU0Zp3QUebHpfzdxxiO2XLe-p9Kzj8ZybVr2ytHLrpmcGfSTe0ysudAqPGyfpRSV2yH4zxF7QBxgt3BCWsQvaTn1_7zSOAIXLDk2VtmSdZO5CxMupSWwQQDGJEoEpOWYynxHMpvBmLnmP4tJAyOaN9QVjVJDbeiZ_BuBYKCtOSQxww8LIwBdu-HT5eeOJAmHHmA8p9YwavF_l4RaqNTxT89WbaNgfLDJHvwHlJj_a1]--></g></svg>