<svg xmlns="http://www.w3.org/2000/svg" xmlns:xlink="http://www.w3.org/1999/xlink" contentStyleType="text/css" data-diagram-type="ACTIVITY" height="416px" preserveAspectRatio="none" style="width:529px;height:416px;background:#1B1B1B;" version="1.1" viewBox="0 0 529 416" width="529px" zoomAndPan="magnify"><defs/><g><rect fill="#1B1B1B" height="416" style="stroke:none;stroke-width:1;" width="529" x="0" y="0"/><ellipse cx="236.4526" cy="20" fill="#DDDDDD" rx="10" ry="10" style="stroke:#DDDDDD;stroke-width:1;"/><rect fill="#313139" height="33.9688" rx="12.5" ry="12.5" style="stroke:#E7E7E7;stroke-width:0.5;" width="256.0801" x="108.4126" y="50"/><text fill="#FFFFFF" font-family="sans-serif" font-size="12" lengthAdjust="spacing" textLength="236.0801" x="118.4126" y="71.1387">Usu&#225;rio digita termo na barra de busca</text><rect fill="#313139" height="33.9688" rx="12.5" ry="12.5" style="stroke:#E7E7E7;stroke-width:0.5;" width="263.0176" x="104.9438" y="103.9688"/><text fill="#FFFFFF" font-family="sans-serif" font-size="12" lengthAdjust="spacing" textLength="243.0176" x="114.9438" y="125.1074">Envia formul&#225;rio (searchForm.onsubmit)</text><rect fill="#313139" height="33.9688" rx="12.5" ry="12.5" style="stroke:#E7E7E7;stroke-width:0.5;" width="249.8047" x="111.5503" y="157.9375"/><text fill="#FFFFFF" font-family="sans-serif" font-size="12" lengthAdjust="spacing" textLength="229.8047" x="121.5503" y="179.0762">JavaScript l&#234; valor do campo de busca</text><rect fill="#313139" height="33.9688" rx="12.5" ry="12.5" style="stroke:#E7E7E7;stroke-width:0.5;" width="273.2891" x="99.8081" y="211.9063"/><text fill="#FFFFFF" font-family="sans-serif" font-size="12" lengthAdjust="spacing" textLength="253.2891" x="109.8081" y="233.0449">Filtra allBooks (j&#225; carregados do backend)</text><polygon fill="#313139" points="183.8723,265.875,289.033,265.875,301.033,277.875,289.033,289.875,183.8723,289.875,171.8723,277.875,183.8723,265.875" style="stroke:#E7E7E7;stroke-width:0.5;"/><text fill="#FFFFFF" font-family="sans-serif" font-size="11" lengthAdjust="spacing" textLength="105.1606" x="183.8723" y="281.6831">termo encontrado?</text><text fill="#FFFFFF" font-family="sans-serif" font-size="11" lengthAdjust="spacing" textLength="19.5024" x="152.3699" y="275.2808">sim</text><text fill="#FFFFFF" font-family="sans-serif" font-size="11" lengthAdjust="spacing" textLength="20.4424" x="301.033" y="275.2808">n&#227;o</text><rect fill="#313139" height="33.9688" rx="12.5" ry="12.5" style="stroke:#E7E7E7;stroke-width:0.5;" width="187.4023" x="11" y="299.875"/><text fill="#FFFFFF" font-family="sans-serif" font-size="12" lengthAdjust="spacing" textLength="167.4023" x="21" y="321.0137">Exibe livros filtrados na tela</text><rect fill="#313139" height="33.9688" rx="12.5" ry="12.5" style="stroke:#E7E7E7;stroke-width:0.5;" width="299.6035" x="218.4023" y="299.875"/><text fill="#FFFFFF" font-family="sans-serif" font-size="12" lengthAdjust="spacing" textLength="279.6035" x="228.4023" y="321.0137">Mostra mensagem "Nenhum livro encontrado"</text><polygon fill="#313139" points="236.4526,339.8438,248.4526,351.8438,236.4526,363.8438,224.4526,351.8438,236.4526,339.8438" style="stroke:#E7E7E7;stroke-width:0.5;"/><ellipse cx="236.4526" cy="394.8438" fill="none" rx="11" ry="11" style="stroke:#DDDDDD;stroke-width:1;"/><ellipse cx="236.4526" cy="394.8438" fill="#DDDDDD" rx="6" ry="6" style="stroke:#DDDDDD;stroke-width:1;"/><line style="stroke:#E7E7E7;stroke-width:1;" x1="236.4526" x2="236.4526" y1="30" y2="50"/><polygon fill="#E7E7E7" points="232.4526,40,236.4526,50,240.4526,40,236.4526,44" style="stroke:#E7E7E7;stroke-width:1;"/><line style="stroke:#E7E7E7;stroke-width:1;" x1="236.4526" x2="236.4526" y1="83.9688" y2="103.9688"/><polygon fill="#E7E7E7" points="232.4526,93.9688,236.4526,103.9688,240.4526,93.9688,236.4526,97.9688" style="stroke:#E7E7E7;stroke-width:1;"/><line style="stroke:#E7E7E7;stroke-width:1;" x1="236.4526" x2="236.4526" y1="137.9375" y2="157.9375"/><polygon fill="#E7E7E7" points="232.4526,147.9375,236.4526,157.9375,240.4526,147.9375,236.4526,151.9375" style="stroke:#E7E7E7;stroke-width:1;"/><line style="stroke:#E7E7E7;stroke-width:1;" x1="236.4526" x2="236.4526" y1="191.9063" y2="211.9063"/><polygon fill="#E7E7E7" points="232.4526,201.9063,236.4526,211.9063,240.4526,201.9063,236.4526,205.9063" style="stroke:#E7E7E7;stroke-width:1;"/><line style="stroke:#E7E7E7;stroke-width:1;" x1="171.8723" x2="104.7012" y1="277.875" y2="277.875"/><line style="stroke:#E7E7E7;stroke-width:1;" x1="104.7012" x2="104.7012" y1="277.875" y2="299.875"/><polygon fill="#E7E7E7" points="100.7012,289.875,104.7012,299.875,108.7012,289.875,104.7012,293.875" style="stroke:#E7E7E7;stroke-width:1;"/><line style="stroke:#E7E7E7;stroke-width:1;" x1="301.033" x2="368.2041" y1="277.875" y2="277.875"/><line style="stroke:#E7E7E7;stroke-width:1;" x1="368.2041" x2="368.2041" y1="277.875" y2="299.875"/><polygon fill="#E7E7E7" points="364.2041,289.875,368.2041,299.875,372.2041,289.875,368.2041,293.875" style="stroke:#E7E7E7;stroke-width:1;"/><line style="stroke:#E7E7E7;stroke-width:1;" x1="104.7012" x2="104.7012" y1="333.8438" y2="351.8438"/><line style="stroke:#E7E7E7;stroke-width:1;" x1="104.7012" x2="224.4526" y1="351.8438" y2="351.8438"/><polygon fill="#E7E7E7" points="214.4526,347.8438,224.4526,351.8438,214.4526,355.8438,218.4526,351.8438" style="stroke:#E7E7E7;stroke-width:1;"/><line style="stroke:#E7E7E7;stroke-width:1;" x1="368.2041" x2="368.2041" y1="333.8438" y2="351.8438"/><line style="stroke:#E7E7E7;stroke-width:1;" x1="368.2041" x2="248.4526" y1="351.8438" y2="351.8438"/><polygon fill="#E7E7E7" points="258.4526,347.8438,248.4526,351.8438,258.4526,355.8438,254.4526,351.8438" style="stroke:#E7E7E7;stroke-width:1;"/><line style="stroke:#E7E7E7;stroke-width:1;" x1="236.4526" x2="236.4526" y1="245.875" y2="265.875"/><polygon fill="#E7E7E7" points="232.4526,255.875,236.4526,265.875,240.4526,255.875,236.4526,259.875" style="stroke:#E7E7E7;stroke-width:1;"/><line style="stroke:#E7E7E7;stroke-width:1;" x1="236.4526" x2="236.4526" y1="363.8438" y2="383.8438"/><polygon fill="#E7E7E7" points="232.4526,373.8438,236.4526,383.8438,240.4526,373.8438,236.4526,377.8438" style="stroke:#E7E7E7;stroke-width:1;"/><!--SRC=[JOynRiCm34LtduB8P2yzW3iKA90C1Tgbw05eYRRPIAH1IKQl4tJhDNonol6IbVZl_S-KqNBJVwMotOmLF4-S4J9PL1240SqGFC5GaiFdfZ_BoWYZMYpXGDf4Q6w-rDEJIYf3vDpLv1kk-EcCbmnX-uCLWnfu1OTnqKVbXKEk9HZ2g-erGVkztMhAZ2RqcdPcG7SbyLNB8xJ7EXAdKa6lBntacQGkuTWr0FtvXmU2mAjLVBphTv7iZuLQII4HjBBzwZt-hcaV44aIJXJXz44obtW87dfEbHJFOvEoBly0]--></g></svg>