<svg xmlns="http://www.w3.org/2000/svg" xmlns:xlink="http://www.w3.org/1999/xlink" contentStyleType="text/css" data-diagram-type="ACTIVITY" height="768px" preserveAspectRatio="none" style="width:354px;height:768px;background:#1B1B1B;" version="1.1" viewBox="0 0 354 768" width="354px" zoomAndPan="magnify"><defs/><g><rect fill="#1B1B1B" height="768" style="stroke:none;stroke-width:1;" width="354" x="0" y="0"/><ellipse cx="177.042" cy="20" fill="#DDDDDD" rx="10" ry="10" style="stroke:#DDDDDD;stroke-width:1;"/><rect fill="#313139" height="33.9688" rx="12.5" ry="12.5" style="stroke:#E7E7E7;stroke-width:0.5;" width="241.6133" x="56.2354" y="50"/><text fill="#FFFFFF" font-family="sans-serif" font-size="12" lengthAdjust="spacing" textLength="221.6133" x="66.2354" y="71.1387">Usu&#225;rio clica em "Salvar no sistema"</text><rect fill="#313139" height="33.9688" rx="12.5" ry="12.5" style="stroke:#E7E7E7;stroke-width:0.5;" width="210.084" x="72" y="103.9688"/><text fill="#FFFFFF" font-family="sans-serif" font-size="12" lengthAdjust="spacing" textLength="190.084" x="82" y="125.1074">JS chama saveBook(book, card)</text><rect fill="#313139" height="33.9688" rx="12.5" ry="12.5" style="stroke:#E7E7E7;stroke-width:0.5;" width="94.7949" x="129.6445" y="157.9375"/><text fill="#FFFFFF" font-family="sans-serif" font-size="12" lengthAdjust="spacing" textLength="74.7949" x="139.6445" y="179.0762">Exibe loader</text><rect fill="#313139" height="33.9688" rx="12.5" ry="12.5" style="stroke:#E7E7E7;stroke-width:0.5;" width="302.5859" x="25.749" y="211.9063"/><text fill="#FFFFFF" font-family="sans-serif" font-size="12" lengthAdjust="spacing" textLength="282.5859" x="35.749" y="233.0449">POST /livros/importar-da-api com t&#237;tulo do livro</text><rect fill="none" height="352.1094" style="stroke:#FFFFFF;stroke-width:1.5;" width="332.084" x="11" y="255.875"/><path d="M81.3613,255.875 L81.3613,265.1719 L71.3613,275.1719 L11,275.1719" fill="none" style="stroke:#FFFFFF;stroke-width:1.5;"/><text fill="#FFFFFF" font-family="sans-serif" font-size="14" lengthAdjust="spacing" textLength="60.3613" x="14" y="269.8701">Backend</text><rect fill="#313139" height="33.9688" rx="12.5" ry="12.5" style="stroke:#E7E7E7;stroke-width:0.5;" width="189.2422" x="82.4209" y="292.1719"/><text fill="#FFFFFF" font-family="sans-serif" font-size="12" lengthAdjust="spacing" textLength="169.2422" x="92.4209" y="313.3105">LivroController recebe POST</text><rect fill="#313139" height="33.9688" rx="12.5" ry="12.5" style="stroke:#E7E7E7;stroke-width:0.5;" width="235.4141" x="59.335" y="346.1406"/><text fill="#FFFFFF" font-family="sans-serif" font-size="12" lengthAdjust="spacing" textLength="215.4141" x="69.335" y="367.2793">LivroService chama GutendexClient</text><rect fill="#313139" height="33.9688" rx="12.5" ry="12.5" style="stroke:#E7E7E7;stroke-width:0.5;" width="274.3906" x="39.8467" y="400.1094"/><text fill="#FFFFFF" font-family="sans-serif" font-size="12" lengthAdjust="spacing" textLength="254.3906" x="49.8467" y="421.248">GutendexClient busca livro na API externa</text><rect fill="#313139" height="33.9688" rx="12.5" ry="12.5" style="stroke:#E7E7E7;stroke-width:0.5;" width="312.084" x="21" y="454.0781"/><text fill="#FFFFFF" font-family="sans-serif" font-size="12" lengthAdjust="spacing" textLength="292.084" x="31" y="475.2168">LivroService converte resposta para objeto Livro</text><rect fill="#313139" height="33.9688" rx="12.5" ry="12.5" style="stroke:#E7E7E7;stroke-width:0.5;" width="237.9043" x="58.0898" y="508.0469"/><text fill="#FFFFFF" font-family="sans-serif" font-size="12" lengthAdjust="spacing" textLength="217.9043" x="68.0898" y="529.1855">LivroRepository salva livro no banco</text><rect fill="#313139" height="33.9688" rx="12.5" ry="12.5" style="stroke:#E7E7E7;stroke-width:0.5;" width="220.1328" x="66.9756" y="562.0156"/><text fill="#FFFFFF" font-family="sans-serif" font-size="12" lengthAdjust="spacing" textLength="200.1328" x="76.9756" y="583.1543">LivroController responde sucesso</text><rect fill="#313139" height="33.9688" rx="12.5" ry="12.5" style="stroke:#E7E7E7;stroke-width:0.5;" width="100.8184" x="126.6328" y="627.9844"/><text fill="#FFFFFF" font-family="sans-serif" font-size="12" lengthAdjust="spacing" textLength="80.8184" x="136.6328" y="649.123">Oculta loader</text><rect fill="#313139" height="33.9688" rx="12.5" ry="12.5" style="stroke:#E7E7E7;stroke-width:0.5;" width="275.9902" x="39.0469" y="681.9531"/><text fill="#FFFFFF" font-family="sans-serif" font-size="12" lengthAdjust="spacing" textLength="255.9902" x="49.0469" y="703.0918">Bot&#227;o muda para "Salvo!" e &#233; desabilitado</text><ellipse cx="177.042" cy="746.9219" fill="none" rx="11" ry="11" style="stroke:#DDDDDD;stroke-width:1;"/><ellipse cx="177.042" cy="746.9219" fill="#DDDDDD" rx="6" ry="6" style="stroke:#DDDDDD;stroke-width:1;"/><line style="stroke:#E7E7E7;stroke-width:1;" x1="177.042" x2="177.042" y1="30" y2="50"/><polygon fill="#E7E7E7" points="173.042,40,177.042,50,181.042,40,177.042,44" style="stroke:#E7E7E7;stroke-width:1;"/><line style="stroke:#E7E7E7;stroke-width:1;" x1="177.042" x2="177.042" y1="83.9688" y2="103.9688"/><polygon fill="#E7E7E7" points="173.042,93.9688,177.042,103.9688,181.042,93.9688,177.042,97.9688" style="stroke:#E7E7E7;stroke-width:1;"/><line style="stroke:#E7E7E7;stroke-width:1;" x1="177.042" x2="177.042" y1="137.9375" y2="157.9375"/><polygon fill="#E7E7E7" points="173.042,147.9375,177.042,157.9375,181.042,147.9375,177.042,151.9375" style="stroke:#E7E7E7;stroke-width:1;"/><line style="stroke:#E7E7E7;stroke-width:1;" x1="177.042" x2="177.042" y1="191.9063" y2="211.9063"/><polygon fill="#E7E7E7" points="173.042,201.9063,177.042,211.9063,181.042,201.9063,177.042,205.9063" style="stroke:#E7E7E7;stroke-width:1;"/><line style="stroke:#E7E7E7;stroke-width:1;" x1="177.042" x2="177.042" y1="326.1406" y2="346.1406"/><polygon fill="#E7E7E7" points="173.042,336.1406,177.042,346.1406,181.042,336.1406,177.042,340.1406" style="stroke:#E7E7E7;stroke-width:1;"/><line style="stroke:#E7E7E7;stroke-width:1;" x1="177.042" x2="177.042" y1="380.1094" y2="400.1094"/><polygon fill="#E7E7E7" points="173.042,390.1094,177.042,400.1094,181.042,390.1094,177.042,394.1094" style="stroke:#E7E7E7;stroke-width:1;"/><line style="stroke:#E7E7E7;stroke-width:1;" x1="177.042" x2="177.042" y1="434.0781" y2="454.0781"/><polygon fill="#E7E7E7" points="173.042,444.0781,177.042,454.0781,181.042,444.0781,177.042,448.0781" style="stroke:#E7E7E7;stroke-width:1;"/><line style="stroke:#E7E7E7;stroke-width:1;" x1="177.042" x2="177.042" y1="488.0469" y2="508.0469"/><polygon fill="#E7E7E7" points="173.042,498.0469,177.042,508.0469,181.042,498.0469,177.042,502.0469" style="stroke:#E7E7E7;stroke-width:1;"/><line style="stroke:#E7E7E7;stroke-width:1;" x1="177.042" x2="177.042" y1="542.0156" y2="562.0156"/><polygon fill="#E7E7E7" points="173.042,552.0156,177.042,562.0156,181.042,552.0156,177.042,556.0156" style="stroke:#E7E7E7;stroke-width:1;"/><line style="stroke:#E7E7E7;stroke-width:1;" x1="177.042" x2="177.042" y1="245.875" y2="292.1719"/><polygon fill="#E7E7E7" points="173.042,282.1719,177.042,292.1719,181.042,282.1719,177.042,286.1719" style="stroke:#E7E7E7;stroke-width:1;"/><line style="stroke:#E7E7E7;stroke-width:1;" x1="177.042" x2="177.042" y1="595.9844" y2="627.9844"/><polygon fill="#E7E7E7" points="173.042,617.9844,177.042,627.9844,181.042,617.9844,177.042,621.9844" style="stroke:#E7E7E7;stroke-width:1;"/><line style="stroke:#E7E7E7;stroke-width:1;" x1="177.042" x2="177.042" y1="661.9531" y2="681.9531"/><polygon fill="#E7E7E7" points="173.042,671.9531,177.042,681.9531,181.042,671.9531,177.042,675.9531" style="stroke:#E7E7E7;stroke-width:1;"/><line style="stroke:#E7E7E7;stroke-width:1;" x1="177.042" x2="177.042" y1="715.9219" y2="735.9219"/><polygon fill="#E7E7E7" points="173.042,725.9219,177.042,735.9219,181.042,725.9219,177.042,729.9219" style="stroke:#E7E7E7;stroke-width:1;"/><!--SRC=[RP51IWD144NtSuflLWg6x9EL2I9A8C7e0Mfw2cpJqpLqrmmHyJ3YoeMdc8jP6PEWuAQX-_-gzwiwAoKjfe-vxT-J5xZW7O5hZ3OKEag8WkopSasZMJ6zsy0zKKt8rF5SP7jUsd49HwcwCFrwvqj64AeusNMzsZnW4doN94zytKWotBYYCJKUJcfe_wLj45I2mJKh6ilZrKl4dDoMOuNN0fWkz-f2eYO9WHCIEpRI7Z0xwHjEdNTyY7ZJgfNpRX4yHnrSVvzGjjc67S28XAlrBNYdd2BzqrDYnqdPoBcHh0HBIf3ocLMm_0b_BBfditYLz6ABiZKU6OAIeljb_3EHzRLmoAtZdCtqLanNhWs6EYrqBjf_2EgsEl27RvAp4HZz9ohELFhWbIghpohDDm00]--></g></svg>